<mxfile host="app.diagrams.net" agent="Mozilla/5.0 (Windows NT 10.0; Win64; x64) AppleWebKit/537.36 (KHTML, like Gecko) Chrome/135.0.0.0 Safari/537.36" version="26.1.3">
  <diagram name="Page-1" id="5aiyYLih3nVZ37MDeS_2">
    <mxGraphModel dx="1323" dy="-402" grid="1" gridSize="10" guides="1" tooltips="1" connect="1" arrows="1" fold="1" page="1" pageScale="1" pageWidth="827" pageHeight="1169" math="0" shadow="0">
      <root>
        <mxCell id="0" />
        <mxCell id="1" parent="0" />
        <mxCell id="d-FdLsb-4e8FkBZbaTKH-1" value="&lt;&lt;Enumeration&gt;&gt;&#xa;MaritalStatus" style="swimlane;fontStyle=1;align=center;verticalAlign=top;childLayout=stackLayout;horizontal=1;startSize=60;horizontalStack=0;resizeParent=1;resizeParentMax=0;resizeLast=0;collapsible=0;marginBottom=0;" vertex="1" parent="1">
          <mxGeometry x="1318" y="1686" width="140" height="160" as="geometry" />
        </mxCell>
        <mxCell id="d-FdLsb-4e8FkBZbaTKH-2" value="SINGLE" style="text;strokeColor=none;fillColor=none;align=left;verticalAlign=top;spacingLeft=4;spacingRight=4;overflow=hidden;rotatable=0;points=[[0,0.5],[1,0.5]];portConstraint=eastwest;" vertex="1" parent="d-FdLsb-4e8FkBZbaTKH-1">
          <mxGeometry y="60" width="140" height="40" as="geometry" />
        </mxCell>
        <mxCell id="d-FdLsb-4e8FkBZbaTKH-3" value="MARRIED" style="text;strokeColor=none;fillColor=none;align=left;verticalAlign=top;spacingLeft=4;spacingRight=4;overflow=hidden;rotatable=0;points=[[0,0.5],[1,0.5]];portConstraint=eastwest;" vertex="1" parent="d-FdLsb-4e8FkBZbaTKH-1">
          <mxGeometry y="100" width="140" height="40" as="geometry" />
        </mxCell>
        <mxCell id="d-FdLsb-4e8FkBZbaTKH-4" style="line;strokeWidth=1;fillColor=none;align=left;verticalAlign=middle;spacingTop=-1;spacingLeft=3;spacingRight=3;rotatable=0;labelPosition=right;points=[];portConstraint=eastwest;strokeColor=inherit;" vertex="1" parent="d-FdLsb-4e8FkBZbaTKH-1">
          <mxGeometry y="140" width="140" height="20" as="geometry" />
        </mxCell>
        <mxCell id="d-FdLsb-4e8FkBZbaTKH-5" value="&lt;&lt;Enumeration&gt;&gt;&#xa;FlatType" style="swimlane;fontStyle=1;align=center;verticalAlign=top;childLayout=stackLayout;horizontal=1;startSize=60;horizontalStack=0;resizeParent=1;resizeParentMax=0;resizeLast=0;collapsible=0;marginBottom=0;" vertex="1" parent="1">
          <mxGeometry x="1508" y="1686" width="175" height="160" as="geometry" />
        </mxCell>
        <mxCell id="d-FdLsb-4e8FkBZbaTKH-6" value="TWO_ROOM" style="text;strokeColor=none;fillColor=none;align=left;verticalAlign=top;spacingLeft=4;spacingRight=4;overflow=hidden;rotatable=0;points=[[0,0.5],[1,0.5]];portConstraint=eastwest;" vertex="1" parent="d-FdLsb-4e8FkBZbaTKH-5">
          <mxGeometry y="60" width="175" height="40" as="geometry" />
        </mxCell>
        <mxCell id="d-FdLsb-4e8FkBZbaTKH-7" value="THREE_ROOM" style="text;strokeColor=none;fillColor=none;align=left;verticalAlign=top;spacingLeft=4;spacingRight=4;overflow=hidden;rotatable=0;points=[[0,0.5],[1,0.5]];portConstraint=eastwest;" vertex="1" parent="d-FdLsb-4e8FkBZbaTKH-5">
          <mxGeometry y="100" width="175" height="40" as="geometry" />
        </mxCell>
        <mxCell id="d-FdLsb-4e8FkBZbaTKH-8" style="line;strokeWidth=1;fillColor=none;align=left;verticalAlign=middle;spacingTop=-1;spacingLeft=3;spacingRight=3;rotatable=0;labelPosition=right;points=[];portConstraint=eastwest;strokeColor=inherit;" vertex="1" parent="d-FdLsb-4e8FkBZbaTKH-5">
          <mxGeometry y="140" width="175" height="20" as="geometry" />
        </mxCell>
        <mxCell id="d-FdLsb-4e8FkBZbaTKH-9" value="&lt;&lt;Enumeration&gt;&gt;&#xa;ApplicationStatus" style="swimlane;fontStyle=1;align=center;verticalAlign=top;childLayout=stackLayout;horizontal=1;startSize=49.71428571428572;horizontalStack=0;resizeParent=1;resizeParentMax=0;resizeLast=0;collapsible=0;marginBottom=0;" vertex="1" parent="1">
          <mxGeometry x="1733" y="1650" width="198" height="231.71428571428572" as="geometry" />
        </mxCell>
        <mxCell id="d-FdLsb-4e8FkBZbaTKH-10" value="PENDING" style="text;strokeColor=none;fillColor=none;align=left;verticalAlign=top;spacingLeft=4;spacingRight=4;overflow=hidden;rotatable=0;points=[[0,0.5],[1,0.5]];portConstraint=eastwest;" vertex="1" parent="d-FdLsb-4e8FkBZbaTKH-9">
          <mxGeometry y="49.71428571428572" width="198" height="33" as="geometry" />
        </mxCell>
        <mxCell id="d-FdLsb-4e8FkBZbaTKH-11" value="SUCCESSFUL" style="text;strokeColor=none;fillColor=none;align=left;verticalAlign=top;spacingLeft=4;spacingRight=4;overflow=hidden;rotatable=0;points=[[0,0.5],[1,0.5]];portConstraint=eastwest;" vertex="1" parent="d-FdLsb-4e8FkBZbaTKH-9">
          <mxGeometry y="82.71428571428572" width="198" height="33" as="geometry" />
        </mxCell>
        <mxCell id="d-FdLsb-4e8FkBZbaTKH-12" value="UNSUCCESSFUL" style="text;strokeColor=none;fillColor=none;align=left;verticalAlign=top;spacingLeft=4;spacingRight=4;overflow=hidden;rotatable=0;points=[[0,0.5],[1,0.5]];portConstraint=eastwest;" vertex="1" parent="d-FdLsb-4e8FkBZbaTKH-9">
          <mxGeometry y="115.71428571428572" width="198" height="33" as="geometry" />
        </mxCell>
        <mxCell id="d-FdLsb-4e8FkBZbaTKH-13" value="BOOKED" style="text;strokeColor=none;fillColor=none;align=left;verticalAlign=top;spacingLeft=4;spacingRight=4;overflow=hidden;rotatable=0;points=[[0,0.5],[1,0.5]];portConstraint=eastwest;" vertex="1" parent="d-FdLsb-4e8FkBZbaTKH-9">
          <mxGeometry y="148.71428571428572" width="198" height="33" as="geometry" />
        </mxCell>
        <mxCell id="d-FdLsb-4e8FkBZbaTKH-14" value="WITHDRAWN" style="text;strokeColor=none;fillColor=none;align=left;verticalAlign=top;spacingLeft=4;spacingRight=4;overflow=hidden;rotatable=0;points=[[0,0.5],[1,0.5]];portConstraint=eastwest;" vertex="1" parent="d-FdLsb-4e8FkBZbaTKH-9">
          <mxGeometry y="181.71428571428572" width="198" height="33" as="geometry" />
        </mxCell>
        <mxCell id="d-FdLsb-4e8FkBZbaTKH-15" style="line;strokeWidth=1;fillColor=none;align=left;verticalAlign=middle;spacingTop=-1;spacingLeft=3;spacingRight=3;rotatable=0;labelPosition=right;points=[];portConstraint=eastwest;strokeColor=inherit;" vertex="1" parent="d-FdLsb-4e8FkBZbaTKH-9">
          <mxGeometry y="214.71428571428572" width="198" height="17" as="geometry" />
        </mxCell>
        <mxCell id="d-FdLsb-4e8FkBZbaTKH-16" value="&lt;&lt;Enumeration&gt;&gt;&#xa;RegistrationStatus" style="swimlane;fontStyle=1;align=center;verticalAlign=top;childLayout=stackLayout;horizontal=1;startSize=55.199999999999996;horizontalStack=0;resizeParent=1;resizeParentMax=0;resizeLast=0;collapsible=0;marginBottom=0;" vertex="1" parent="1">
          <mxGeometry x="1980" y="1674" width="167" height="184.2" as="geometry" />
        </mxCell>
        <mxCell id="d-FdLsb-4e8FkBZbaTKH-17" value="PENDING" style="text;strokeColor=none;fillColor=none;align=left;verticalAlign=top;spacingLeft=4;spacingRight=4;overflow=hidden;rotatable=0;points=[[0,0.5],[1,0.5]];portConstraint=eastwest;" vertex="1" parent="d-FdLsb-4e8FkBZbaTKH-16">
          <mxGeometry y="55.199999999999996" width="167" height="37" as="geometry" />
        </mxCell>
        <mxCell id="d-FdLsb-4e8FkBZbaTKH-18" value="APPROVED" style="text;strokeColor=none;fillColor=none;align=left;verticalAlign=top;spacingLeft=4;spacingRight=4;overflow=hidden;rotatable=0;points=[[0,0.5],[1,0.5]];portConstraint=eastwest;" vertex="1" parent="d-FdLsb-4e8FkBZbaTKH-16">
          <mxGeometry y="92.19999999999999" width="167" height="37" as="geometry" />
        </mxCell>
        <mxCell id="d-FdLsb-4e8FkBZbaTKH-19" value="REJECTED" style="text;strokeColor=none;fillColor=none;align=left;verticalAlign=top;spacingLeft=4;spacingRight=4;overflow=hidden;rotatable=0;points=[[0,0.5],[1,0.5]];portConstraint=eastwest;" vertex="1" parent="d-FdLsb-4e8FkBZbaTKH-16">
          <mxGeometry y="129.2" width="167" height="37" as="geometry" />
        </mxCell>
        <mxCell id="d-FdLsb-4e8FkBZbaTKH-20" style="line;strokeWidth=1;fillColor=none;align=left;verticalAlign=middle;spacingTop=-1;spacingLeft=3;spacingRight=3;rotatable=0;labelPosition=right;points=[];portConstraint=eastwest;strokeColor=inherit;" vertex="1" parent="d-FdLsb-4e8FkBZbaTKH-16">
          <mxGeometry y="166.2" width="167" height="18" as="geometry" />
        </mxCell>
        <mxCell id="d-FdLsb-4e8FkBZbaTKH-21" value="&lt;&lt;Abstract&gt;&gt;&#xa;User" style="swimlane;fontStyle=1;align=center;verticalAlign=top;childLayout=stackLayout;horizontal=1;startSize=51.2;horizontalStack=0;resizeParent=1;resizeParentMax=0;resizeLast=0;collapsible=0;marginBottom=0;" vertex="1" parent="1">
          <mxGeometry x="2336" y="1940" width="355" height="263.2" as="geometry" />
        </mxCell>
        <mxCell id="d-FdLsb-4e8FkBZbaTKH-22" value="- nric : String" style="text;strokeColor=none;fillColor=none;align=left;verticalAlign=top;spacingLeft=4;spacingRight=4;overflow=hidden;rotatable=0;points=[[0,0.5],[1,0.5]];portConstraint=eastwest;" vertex="1" parent="d-FdLsb-4e8FkBZbaTKH-21">
          <mxGeometry y="51.2" width="355" height="34" as="geometry" />
        </mxCell>
        <mxCell id="d-FdLsb-4e8FkBZbaTKH-23" value="- password : String" style="text;strokeColor=none;fillColor=none;align=left;verticalAlign=top;spacingLeft=4;spacingRight=4;overflow=hidden;rotatable=0;points=[[0,0.5],[1,0.5]];portConstraint=eastwest;" vertex="1" parent="d-FdLsb-4e8FkBZbaTKH-21">
          <mxGeometry y="85.2" width="355" height="34" as="geometry" />
        </mxCell>
        <mxCell id="d-FdLsb-4e8FkBZbaTKH-24" value="- age : int" style="text;strokeColor=none;fillColor=none;align=left;verticalAlign=top;spacingLeft=4;spacingRight=4;overflow=hidden;rotatable=0;points=[[0,0.5],[1,0.5]];portConstraint=eastwest;" vertex="1" parent="d-FdLsb-4e8FkBZbaTKH-21">
          <mxGeometry y="119.2" width="355" height="34" as="geometry" />
        </mxCell>
        <mxCell id="d-FdLsb-4e8FkBZbaTKH-25" value="- maritalStatus : MaritalStatus" style="text;strokeColor=none;fillColor=none;align=left;verticalAlign=top;spacingLeft=4;spacingRight=4;overflow=hidden;rotatable=0;points=[[0,0.5],[1,0.5]];portConstraint=eastwest;" vertex="1" parent="d-FdLsb-4e8FkBZbaTKH-21">
          <mxGeometry y="153.2" width="355" height="34" as="geometry" />
        </mxCell>
        <mxCell id="d-FdLsb-4e8FkBZbaTKH-26" style="line;strokeWidth=1;fillColor=none;align=left;verticalAlign=middle;spacingTop=-1;spacingLeft=3;spacingRight=3;rotatable=0;labelPosition=right;points=[];portConstraint=eastwest;strokeColor=inherit;" vertex="1" parent="d-FdLsb-4e8FkBZbaTKH-21">
          <mxGeometry y="187.2" width="355" height="8" as="geometry" />
        </mxCell>
        <mxCell id="d-FdLsb-4e8FkBZbaTKH-27" value="+ login() : : boolean" style="text;strokeColor=none;fillColor=none;align=left;verticalAlign=top;spacingLeft=4;spacingRight=4;overflow=hidden;rotatable=0;points=[[0,0.5],[1,0.5]];portConstraint=eastwest;" vertex="1" parent="d-FdLsb-4e8FkBZbaTKH-21">
          <mxGeometry y="195.2" width="355" height="34" as="geometry" />
        </mxCell>
        <mxCell id="d-FdLsb-4e8FkBZbaTKH-28" value="+ changePassword(newPassword : String)" style="text;strokeColor=none;fillColor=none;align=left;verticalAlign=top;spacingLeft=4;spacingRight=4;overflow=hidden;rotatable=0;points=[[0,0.5],[1,0.5]];portConstraint=eastwest;" vertex="1" parent="d-FdLsb-4e8FkBZbaTKH-21">
          <mxGeometry y="229.2" width="355" height="34" as="geometry" />
        </mxCell>
        <mxCell id="d-FdLsb-4e8FkBZbaTKH-29" value="Applicant" style="swimlane;fontStyle=1;align=center;verticalAlign=top;childLayout=stackLayout;horizontal=1;startSize=30.4;horizontalStack=0;resizeParent=1;resizeParentMax=0;resizeLast=0;collapsible=0;marginBottom=0;" vertex="1" parent="1">
          <mxGeometry x="3168" y="2254" width="430" height="308.4" as="geometry" />
        </mxCell>
        <mxCell id="d-FdLsb-4e8FkBZbaTKH-30" value="- currentApplication : Application" style="text;strokeColor=none;fillColor=none;align=left;verticalAlign=top;spacingLeft=4;spacingRight=4;overflow=hidden;rotatable=0;points=[[0,0.5],[1,0.5]];portConstraint=eastwest;" vertex="1" parent="d-FdLsb-4e8FkBZbaTKH-29">
          <mxGeometry y="30.4" width="430" height="30" as="geometry" />
        </mxCell>
        <mxCell id="d-FdLsb-4e8FkBZbaTKH-31" value="- enquiries : List&lt;Enquiry&gt;" style="text;strokeColor=none;fillColor=none;align=left;verticalAlign=top;spacingLeft=4;spacingRight=4;overflow=hidden;rotatable=0;points=[[0,0.5],[1,0.5]];portConstraint=eastwest;" vertex="1" parent="d-FdLsb-4e8FkBZbaTKH-29">
          <mxGeometry y="60.4" width="430" height="30" as="geometry" />
        </mxCell>
        <mxCell id="d-FdLsb-4e8FkBZbaTKH-32" style="line;strokeWidth=1;fillColor=none;align=left;verticalAlign=middle;spacingTop=-1;spacingLeft=3;spacingRight=3;rotatable=0;labelPosition=right;points=[];portConstraint=eastwest;strokeColor=inherit;" vertex="1" parent="d-FdLsb-4e8FkBZbaTKH-29">
          <mxGeometry y="90.4" width="430" height="8" as="geometry" />
        </mxCell>
        <mxCell id="d-FdLsb-4e8FkBZbaTKH-33" value="+ viewEligibleProjects() : : List&lt;BTOProject&gt;" style="text;strokeColor=none;fillColor=none;align=left;verticalAlign=top;spacingLeft=4;spacingRight=4;overflow=hidden;rotatable=0;points=[[0,0.5],[1,0.5]];portConstraint=eastwest;" vertex="1" parent="d-FdLsb-4e8FkBZbaTKH-29">
          <mxGeometry y="98.4" width="430" height="30" as="geometry" />
        </mxCell>
        <mxCell id="d-FdLsb-4e8FkBZbaTKH-34" value="+ applyForProject(project : BTOProject)" style="text;strokeColor=none;fillColor=none;align=left;verticalAlign=top;spacingLeft=4;spacingRight=4;overflow=hidden;rotatable=0;points=[[0,0.5],[1,0.5]];portConstraint=eastwest;" vertex="1" parent="d-FdLsb-4e8FkBZbaTKH-29">
          <mxGeometry y="128.4" width="430" height="30" as="geometry" />
        </mxCell>
        <mxCell id="d-FdLsb-4e8FkBZbaTKH-35" value="+ viewApplicationStatus() : : ApplicationStatus" style="text;strokeColor=none;fillColor=none;align=left;verticalAlign=top;spacingLeft=4;spacingRight=4;overflow=hidden;rotatable=0;points=[[0,0.5],[1,0.5]];portConstraint=eastwest;" vertex="1" parent="d-FdLsb-4e8FkBZbaTKH-29">
          <mxGeometry y="158.4" width="430" height="30" as="geometry" />
        </mxCell>
        <mxCell id="d-FdLsb-4e8FkBZbaTKH-36" value="+ requestWithdrawal()" style="text;strokeColor=none;fillColor=none;align=left;verticalAlign=top;spacingLeft=4;spacingRight=4;overflow=hidden;rotatable=0;points=[[0,0.5],[1,0.5]];portConstraint=eastwest;" vertex="1" parent="d-FdLsb-4e8FkBZbaTKH-29">
          <mxGeometry y="188.4" width="430" height="30" as="geometry" />
        </mxCell>
        <mxCell id="d-FdLsb-4e8FkBZbaTKH-37" value="+ submitEnquiry(project : BTOProject, msg : String)" style="text;strokeColor=none;fillColor=none;align=left;verticalAlign=top;spacingLeft=4;spacingRight=4;overflow=hidden;rotatable=0;points=[[0,0.5],[1,0.5]];portConstraint=eastwest;" vertex="1" parent="d-FdLsb-4e8FkBZbaTKH-29">
          <mxGeometry y="218.4" width="430" height="30" as="geometry" />
        </mxCell>
        <mxCell id="d-FdLsb-4e8FkBZbaTKH-38" value="+ editEnquiry(enquiry : Enquiry, newMsg : String)" style="text;strokeColor=none;fillColor=none;align=left;verticalAlign=top;spacingLeft=4;spacingRight=4;overflow=hidden;rotatable=0;points=[[0,0.5],[1,0.5]];portConstraint=eastwest;" vertex="1" parent="d-FdLsb-4e8FkBZbaTKH-29">
          <mxGeometry y="248.4" width="430" height="30" as="geometry" />
        </mxCell>
        <mxCell id="d-FdLsb-4e8FkBZbaTKH-39" value="+ deleteEnquiry(enquiry : Enquiry)" style="text;strokeColor=none;fillColor=none;align=left;verticalAlign=top;spacingLeft=4;spacingRight=4;overflow=hidden;rotatable=0;points=[[0,0.5],[1,0.5]];portConstraint=eastwest;" vertex="1" parent="d-FdLsb-4e8FkBZbaTKH-29">
          <mxGeometry y="278.4" width="430" height="30" as="geometry" />
        </mxCell>
        <mxCell id="d-FdLsb-4e8FkBZbaTKH-40" value="HDBOfficer" style="swimlane;fontStyle=1;align=center;verticalAlign=top;childLayout=stackLayout;horizontal=1;startSize=31.11111111111111;horizontalStack=0;resizeParent=1;resizeParentMax=0;resizeLast=0;collapsible=0;marginBottom=0;" vertex="1" parent="1">
          <mxGeometry x="3200" y="2640" width="610" height="287.1111111111111" as="geometry" />
        </mxCell>
        <mxCell id="d-FdLsb-4e8FkBZbaTKH-41" value="- registrationStatus : RegistrationStatus" style="text;strokeColor=none;fillColor=none;align=left;verticalAlign=top;spacingLeft=4;spacingRight=4;overflow=hidden;rotatable=0;points=[[0,0.5],[1,0.5]];portConstraint=eastwest;" vertex="1" parent="d-FdLsb-4e8FkBZbaTKH-40">
          <mxGeometry y="31.11111111111111" width="610" height="31" as="geometry" />
        </mxCell>
        <mxCell id="d-FdLsb-4e8FkBZbaTKH-42" value="- managedProjects : List&lt;BTOProject&gt;" style="text;strokeColor=none;fillColor=none;align=left;verticalAlign=top;spacingLeft=4;spacingRight=4;overflow=hidden;rotatable=0;points=[[0,0.5],[1,0.5]];portConstraint=eastwest;" vertex="1" parent="d-FdLsb-4e8FkBZbaTKH-40">
          <mxGeometry y="62.111111111111114" width="610" height="31" as="geometry" />
        </mxCell>
        <mxCell id="d-FdLsb-4e8FkBZbaTKH-43" style="line;strokeWidth=1;fillColor=none;align=left;verticalAlign=middle;spacingTop=-1;spacingLeft=3;spacingRight=3;rotatable=0;labelPosition=right;points=[];portConstraint=eastwest;strokeColor=inherit;" vertex="1" parent="d-FdLsb-4e8FkBZbaTKH-40">
          <mxGeometry y="93.11111111111111" width="610" height="8" as="geometry" />
        </mxCell>
        <mxCell id="d-FdLsb-4e8FkBZbaTKH-44" value="+ registerForProject(project : BTOProject)" style="text;strokeColor=none;fillColor=none;align=left;verticalAlign=top;spacingLeft=4;spacingRight=4;overflow=hidden;rotatable=0;points=[[0,0.5],[1,0.5]];portConstraint=eastwest;" vertex="1" parent="d-FdLsb-4e8FkBZbaTKH-40">
          <mxGeometry y="101.11111111111111" width="610" height="31" as="geometry" />
        </mxCell>
        <mxCell id="d-FdLsb-4e8FkBZbaTKH-45" value="+ viewRegistrationStatus() : : RegistrationStatus" style="text;strokeColor=none;fillColor=none;align=left;verticalAlign=top;spacingLeft=4;spacingRight=4;overflow=hidden;rotatable=0;points=[[0,0.5],[1,0.5]];portConstraint=eastwest;" vertex="1" parent="d-FdLsb-4e8FkBZbaTKH-40">
          <mxGeometry y="132.11111111111111" width="610" height="31" as="geometry" />
        </mxCell>
        <mxCell id="d-FdLsb-4e8FkBZbaTKH-46" value="+ replyToEnquiry(enquiry : Enquiry, response : String)" style="text;strokeColor=none;fillColor=none;align=left;verticalAlign=top;spacingLeft=4;spacingRight=4;overflow=hidden;rotatable=0;points=[[0,0.5],[1,0.5]];portConstraint=eastwest;" vertex="1" parent="d-FdLsb-4e8FkBZbaTKH-40">
          <mxGeometry y="163.11111111111111" width="610" height="31" as="geometry" />
        </mxCell>
        <mxCell id="d-FdLsb-4e8FkBZbaTKH-47" value="+ processFlatBooking(app : Application, flatType : FlatType)" style="text;strokeColor=none;fillColor=none;align=left;verticalAlign=top;spacingLeft=4;spacingRight=4;overflow=hidden;rotatable=0;points=[[0,0.5],[1,0.5]];portConstraint=eastwest;" vertex="1" parent="d-FdLsb-4e8FkBZbaTKH-40">
          <mxGeometry y="194.11111111111111" width="610" height="31" as="geometry" />
        </mxCell>
        <mxCell id="d-FdLsb-4e8FkBZbaTKH-48" value="+ updateFlatAvailability(project : BTOProject, flatType : FlatType, qty : int)" style="text;strokeColor=none;fillColor=none;align=left;verticalAlign=top;spacingLeft=4;spacingRight=4;overflow=hidden;rotatable=0;points=[[0,0.5],[1,0.5]];portConstraint=eastwest;" vertex="1" parent="d-FdLsb-4e8FkBZbaTKH-40">
          <mxGeometry y="225.11111111111111" width="610" height="31" as="geometry" />
        </mxCell>
        <mxCell id="d-FdLsb-4e8FkBZbaTKH-49" value="+ generateReceipt(app : Application)" style="text;strokeColor=none;fillColor=none;align=left;verticalAlign=top;spacingLeft=4;spacingRight=4;overflow=hidden;rotatable=0;points=[[0,0.5],[1,0.5]];portConstraint=eastwest;" vertex="1" parent="d-FdLsb-4e8FkBZbaTKH-40">
          <mxGeometry y="256.1111111111111" width="610" height="31" as="geometry" />
        </mxCell>
        <mxCell id="d-FdLsb-4e8FkBZbaTKH-50" value="HDBManager" style="swimlane;fontStyle=1;align=center;verticalAlign=top;childLayout=stackLayout;horizontal=1;startSize=29.818181818181817;horizontalStack=0;resizeParent=1;resizeParentMax=0;resizeLast=0;collapsible=0;marginBottom=0;" vertex="1" parent="1">
          <mxGeometry x="1723" y="2616" width="588" height="337.8181818181818" as="geometry" />
        </mxCell>
        <mxCell id="d-FdLsb-4e8FkBZbaTKH-51" value="- managedProjects : List&lt;BTOProject&gt;" style="text;strokeColor=none;fillColor=none;align=left;verticalAlign=top;spacingLeft=4;spacingRight=4;overflow=hidden;rotatable=0;points=[[0,0.5],[1,0.5]];portConstraint=eastwest;" vertex="1" parent="d-FdLsb-4e8FkBZbaTKH-50">
          <mxGeometry y="29.818181818181817" width="588" height="30" as="geometry" />
        </mxCell>
        <mxCell id="d-FdLsb-4e8FkBZbaTKH-52" style="line;strokeWidth=1;fillColor=none;align=left;verticalAlign=middle;spacingTop=-1;spacingLeft=3;spacingRight=3;rotatable=0;labelPosition=right;points=[];portConstraint=eastwest;strokeColor=inherit;" vertex="1" parent="d-FdLsb-4e8FkBZbaTKH-50">
          <mxGeometry y="59.81818181818181" width="588" height="8" as="geometry" />
        </mxCell>
        <mxCell id="d-FdLsb-4e8FkBZbaTKH-53" value="+ createProject(details)" style="text;strokeColor=none;fillColor=none;align=left;verticalAlign=top;spacingLeft=4;spacingRight=4;overflow=hidden;rotatable=0;points=[[0,0.5],[1,0.5]];portConstraint=eastwest;" vertex="1" parent="d-FdLsb-4e8FkBZbaTKH-50">
          <mxGeometry y="67.81818181818181" width="588" height="30" as="geometry" />
        </mxCell>
        <mxCell id="d-FdLsb-4e8FkBZbaTKH-54" value="+ editProject(project : BTOProject, updated)" style="text;strokeColor=none;fillColor=none;align=left;verticalAlign=top;spacingLeft=4;spacingRight=4;overflow=hidden;rotatable=0;points=[[0,0.5],[1,0.5]];portConstraint=eastwest;" vertex="1" parent="d-FdLsb-4e8FkBZbaTKH-50">
          <mxGeometry y="97.81818181818181" width="588" height="30" as="geometry" />
        </mxCell>
        <mxCell id="d-FdLsb-4e8FkBZbaTKH-55" value="+ deleteProject(project : BTOProject)" style="text;strokeColor=none;fillColor=none;align=left;verticalAlign=top;spacingLeft=4;spacingRight=4;overflow=hidden;rotatable=0;points=[[0,0.5],[1,0.5]];portConstraint=eastwest;" vertex="1" parent="d-FdLsb-4e8FkBZbaTKH-50">
          <mxGeometry y="127.81818181818181" width="588" height="30" as="geometry" />
        </mxCell>
        <mxCell id="d-FdLsb-4e8FkBZbaTKH-56" value="+ toggleVisibility(project : BTOProject, flag : boolean)" style="text;strokeColor=none;fillColor=none;align=left;verticalAlign=top;spacingLeft=4;spacingRight=4;overflow=hidden;rotatable=0;points=[[0,0.5],[1,0.5]];portConstraint=eastwest;" vertex="1" parent="d-FdLsb-4e8FkBZbaTKH-50">
          <mxGeometry y="157.8181818181818" width="588" height="30" as="geometry" />
        </mxCell>
        <mxCell id="d-FdLsb-4e8FkBZbaTKH-57" value="+ approveOfficerRegistration(officer : HDBOfficer, project : BTOProject)" style="text;strokeColor=none;fillColor=none;align=left;verticalAlign=top;spacingLeft=4;spacingRight=4;overflow=hidden;rotatable=0;points=[[0,0.5],[1,0.5]];portConstraint=eastwest;" vertex="1" parent="d-FdLsb-4e8FkBZbaTKH-50">
          <mxGeometry y="187.8181818181818" width="588" height="30" as="geometry" />
        </mxCell>
        <mxCell id="d-FdLsb-4e8FkBZbaTKH-58" value="+ approveApplication(app : Application)" style="text;strokeColor=none;fillColor=none;align=left;verticalAlign=top;spacingLeft=4;spacingRight=4;overflow=hidden;rotatable=0;points=[[0,0.5],[1,0.5]];portConstraint=eastwest;" vertex="1" parent="d-FdLsb-4e8FkBZbaTKH-50">
          <mxGeometry y="217.8181818181818" width="588" height="30" as="geometry" />
        </mxCell>
        <mxCell id="d-FdLsb-4e8FkBZbaTKH-59" value="+ approveWithdrawal(app : Application)" style="text;strokeColor=none;fillColor=none;align=left;verticalAlign=top;spacingLeft=4;spacingRight=4;overflow=hidden;rotatable=0;points=[[0,0.5],[1,0.5]];portConstraint=eastwest;" vertex="1" parent="d-FdLsb-4e8FkBZbaTKH-50">
          <mxGeometry y="247.8181818181818" width="588" height="30" as="geometry" />
        </mxCell>
        <mxCell id="d-FdLsb-4e8FkBZbaTKH-60" value="+ generateReport(filters)" style="text;strokeColor=none;fillColor=none;align=left;verticalAlign=top;spacingLeft=4;spacingRight=4;overflow=hidden;rotatable=0;points=[[0,0.5],[1,0.5]];portConstraint=eastwest;" vertex="1" parent="d-FdLsb-4e8FkBZbaTKH-50">
          <mxGeometry y="277.8181818181818" width="588" height="30" as="geometry" />
        </mxCell>
        <mxCell id="d-FdLsb-4e8FkBZbaTKH-61" value="+ filterOwnProjects() : : List&lt;BTOProject&gt;" style="text;strokeColor=none;fillColor=none;align=left;verticalAlign=top;spacingLeft=4;spacingRight=4;overflow=hidden;rotatable=0;points=[[0,0.5],[1,0.5]];portConstraint=eastwest;" vertex="1" parent="d-FdLsb-4e8FkBZbaTKH-50">
          <mxGeometry y="307.8181818181818" width="588" height="30" as="geometry" />
        </mxCell>
        <mxCell id="d-FdLsb-4e8FkBZbaTKH-62" value="BTOProject" style="swimlane;fontStyle=1;align=center;verticalAlign=top;childLayout=stackLayout;horizontal=1;startSize=28.923076923076923;horizontalStack=0;resizeParent=1;resizeParentMax=0;resizeLast=0;collapsible=0;marginBottom=0;" vertex="1" parent="1">
          <mxGeometry x="3476" y="3025" width="398" height="384.9230769230769" as="geometry" />
        </mxCell>
        <mxCell id="d-FdLsb-4e8FkBZbaTKH-63" value="- projectName : String" style="text;strokeColor=none;fillColor=none;align=left;verticalAlign=top;spacingLeft=4;spacingRight=4;overflow=hidden;rotatable=0;points=[[0,0.5],[1,0.5]];portConstraint=eastwest;" vertex="1" parent="d-FdLsb-4e8FkBZbaTKH-62">
          <mxGeometry y="28.923076923076923" width="398" height="29" as="geometry" />
        </mxCell>
        <mxCell id="d-FdLsb-4e8FkBZbaTKH-64" value="- neighborhood : String" style="text;strokeColor=none;fillColor=none;align=left;verticalAlign=top;spacingLeft=4;spacingRight=4;overflow=hidden;rotatable=0;points=[[0,0.5],[1,0.5]];portConstraint=eastwest;" vertex="1" parent="d-FdLsb-4e8FkBZbaTKH-62">
          <mxGeometry y="57.92307692307692" width="398" height="29" as="geometry" />
        </mxCell>
        <mxCell id="d-FdLsb-4e8FkBZbaTKH-65" value="- availableUnits : Map&lt;FlatType,int&gt;" style="text;strokeColor=none;fillColor=none;align=left;verticalAlign=top;spacingLeft=4;spacingRight=4;overflow=hidden;rotatable=0;points=[[0,0.5],[1,0.5]];portConstraint=eastwest;" vertex="1" parent="d-FdLsb-4e8FkBZbaTKH-62">
          <mxGeometry y="86.92307692307692" width="398" height="29" as="geometry" />
        </mxCell>
        <mxCell id="d-FdLsb-4e8FkBZbaTKH-66" value="- openingDate : Date" style="text;strokeColor=none;fillColor=none;align=left;verticalAlign=top;spacingLeft=4;spacingRight=4;overflow=hidden;rotatable=0;points=[[0,0.5],[1,0.5]];portConstraint=eastwest;" vertex="1" parent="d-FdLsb-4e8FkBZbaTKH-62">
          <mxGeometry y="115.92307692307692" width="398" height="29" as="geometry" />
        </mxCell>
        <mxCell id="d-FdLsb-4e8FkBZbaTKH-67" value="- closingDate : Date" style="text;strokeColor=none;fillColor=none;align=left;verticalAlign=top;spacingLeft=4;spacingRight=4;overflow=hidden;rotatable=0;points=[[0,0.5],[1,0.5]];portConstraint=eastwest;" vertex="1" parent="d-FdLsb-4e8FkBZbaTKH-62">
          <mxGeometry y="144.9230769230769" width="398" height="29" as="geometry" />
        </mxCell>
        <mxCell id="d-FdLsb-4e8FkBZbaTKH-68" value="- isVisible : boolean" style="text;strokeColor=none;fillColor=none;align=left;verticalAlign=top;spacingLeft=4;spacingRight=4;overflow=hidden;rotatable=0;points=[[0,0.5],[1,0.5]];portConstraint=eastwest;" vertex="1" parent="d-FdLsb-4e8FkBZbaTKH-62">
          <mxGeometry y="173.9230769230769" width="398" height="29" as="geometry" />
        </mxCell>
        <mxCell id="d-FdLsb-4e8FkBZbaTKH-69" value="- assignedOfficers : List&lt;HDBOfficer&gt;" style="text;strokeColor=none;fillColor=none;align=left;verticalAlign=top;spacingLeft=4;spacingRight=4;overflow=hidden;rotatable=0;points=[[0,0.5],[1,0.5]];portConstraint=eastwest;" vertex="1" parent="d-FdLsb-4e8FkBZbaTKH-62">
          <mxGeometry y="202.9230769230769" width="398" height="29" as="geometry" />
        </mxCell>
        <mxCell id="d-FdLsb-4e8FkBZbaTKH-70" value="- manager : HDBManager" style="text;strokeColor=none;fillColor=none;align=left;verticalAlign=top;spacingLeft=4;spacingRight=4;overflow=hidden;rotatable=0;points=[[0,0.5],[1,0.5]];portConstraint=eastwest;" vertex="1" parent="d-FdLsb-4e8FkBZbaTKH-62">
          <mxGeometry y="231.9230769230769" width="398" height="29" as="geometry" />
        </mxCell>
        <mxCell id="d-FdLsb-4e8FkBZbaTKH-71" style="line;strokeWidth=1;fillColor=none;align=left;verticalAlign=middle;spacingTop=-1;spacingLeft=3;spacingRight=3;rotatable=0;labelPosition=right;points=[];portConstraint=eastwest;strokeColor=inherit;" vertex="1" parent="d-FdLsb-4e8FkBZbaTKH-62">
          <mxGeometry y="260.9230769230769" width="398" height="8" as="geometry" />
        </mxCell>
        <mxCell id="d-FdLsb-4e8FkBZbaTKH-72" value="+ isVisibleTo(applicant : Applicant) : : boolean" style="text;strokeColor=none;fillColor=none;align=left;verticalAlign=top;spacingLeft=4;spacingRight=4;overflow=hidden;rotatable=0;points=[[0,0.5],[1,0.5]];portConstraint=eastwest;" vertex="1" parent="d-FdLsb-4e8FkBZbaTKH-62">
          <mxGeometry y="268.9230769230769" width="398" height="29" as="geometry" />
        </mxCell>
        <mxCell id="d-FdLsb-4e8FkBZbaTKH-73" value="+ getAvailableFlats(flatType : FlatType) : : int" style="text;strokeColor=none;fillColor=none;align=left;verticalAlign=top;spacingLeft=4;spacingRight=4;overflow=hidden;rotatable=0;points=[[0,0.5],[1,0.5]];portConstraint=eastwest;" vertex="1" parent="d-FdLsb-4e8FkBZbaTKH-62">
          <mxGeometry y="297.9230769230769" width="398" height="29" as="geometry" />
        </mxCell>
        <mxCell id="d-FdLsb-4e8FkBZbaTKH-74" value="+ decrementFlatCount(flatType : FlatType)" style="text;strokeColor=none;fillColor=none;align=left;verticalAlign=top;spacingLeft=4;spacingRight=4;overflow=hidden;rotatable=0;points=[[0,0.5],[1,0.5]];portConstraint=eastwest;" vertex="1" parent="d-FdLsb-4e8FkBZbaTKH-62">
          <mxGeometry y="326.9230769230769" width="398" height="29" as="geometry" />
        </mxCell>
        <mxCell id="d-FdLsb-4e8FkBZbaTKH-75" value="+ assignOfficer(officer : HDBOfficer)" style="text;strokeColor=none;fillColor=none;align=left;verticalAlign=top;spacingLeft=4;spacingRight=4;overflow=hidden;rotatable=0;points=[[0,0.5],[1,0.5]];portConstraint=eastwest;" vertex="1" parent="d-FdLsb-4e8FkBZbaTKH-62">
          <mxGeometry y="355.9230769230769" width="398" height="29" as="geometry" />
        </mxCell>
        <mxCell id="d-FdLsb-4e8FkBZbaTKH-76" value="Application" style="swimlane;fontStyle=1;align=center;verticalAlign=top;childLayout=stackLayout;horizontal=1;startSize=32;horizontalStack=0;resizeParent=1;resizeParentMax=0;resizeLast=0;collapsible=0;marginBottom=0;" vertex="1" parent="1">
          <mxGeometry x="20" y="3459" width="398" height="264" as="geometry" />
        </mxCell>
        <mxCell id="d-FdLsb-4e8FkBZbaTKH-77" value="- status : ApplicationStatus" style="text;strokeColor=none;fillColor=none;align=left;verticalAlign=top;spacingLeft=4;spacingRight=4;overflow=hidden;rotatable=0;points=[[0,0.5],[1,0.5]];portConstraint=eastwest;" vertex="1" parent="d-FdLsb-4e8FkBZbaTKH-76">
          <mxGeometry y="32" width="398" height="32" as="geometry" />
        </mxCell>
        <mxCell id="d-FdLsb-4e8FkBZbaTKH-78" value="- applicationDate : Date" style="text;strokeColor=none;fillColor=none;align=left;verticalAlign=top;spacingLeft=4;spacingRight=4;overflow=hidden;rotatable=0;points=[[0,0.5],[1,0.5]];portConstraint=eastwest;" vertex="1" parent="d-FdLsb-4e8FkBZbaTKH-76">
          <mxGeometry y="64" width="398" height="32" as="geometry" />
        </mxCell>
        <mxCell id="d-FdLsb-4e8FkBZbaTKH-79" value="- project : BTOProject" style="text;strokeColor=none;fillColor=none;align=left;verticalAlign=top;spacingLeft=4;spacingRight=4;overflow=hidden;rotatable=0;points=[[0,0.5],[1,0.5]];portConstraint=eastwest;" vertex="1" parent="d-FdLsb-4e8FkBZbaTKH-76">
          <mxGeometry y="96" width="398" height="32" as="geometry" />
        </mxCell>
        <mxCell id="d-FdLsb-4e8FkBZbaTKH-80" value="- applicant : Applicant" style="text;strokeColor=none;fillColor=none;align=left;verticalAlign=top;spacingLeft=4;spacingRight=4;overflow=hidden;rotatable=0;points=[[0,0.5],[1,0.5]];portConstraint=eastwest;" vertex="1" parent="d-FdLsb-4e8FkBZbaTKH-76">
          <mxGeometry y="128" width="398" height="32" as="geometry" />
        </mxCell>
        <mxCell id="d-FdLsb-4e8FkBZbaTKH-81" style="line;strokeWidth=1;fillColor=none;align=left;verticalAlign=middle;spacingTop=-1;spacingLeft=3;spacingRight=3;rotatable=0;labelPosition=right;points=[];portConstraint=eastwest;strokeColor=inherit;" vertex="1" parent="d-FdLsb-4e8FkBZbaTKH-76">
          <mxGeometry y="160" width="398" height="8" as="geometry" />
        </mxCell>
        <mxCell id="d-FdLsb-4e8FkBZbaTKH-82" value="+ updateStatus(newStatus : ApplicationStatus)" style="text;strokeColor=none;fillColor=none;align=left;verticalAlign=top;spacingLeft=4;spacingRight=4;overflow=hidden;rotatable=0;points=[[0,0.5],[1,0.5]];portConstraint=eastwest;" vertex="1" parent="d-FdLsb-4e8FkBZbaTKH-76">
          <mxGeometry y="168" width="398" height="32" as="geometry" />
        </mxCell>
        <mxCell id="d-FdLsb-4e8FkBZbaTKH-83" value="+ requestWithdrawal()" style="text;strokeColor=none;fillColor=none;align=left;verticalAlign=top;spacingLeft=4;spacingRight=4;overflow=hidden;rotatable=0;points=[[0,0.5],[1,0.5]];portConstraint=eastwest;" vertex="1" parent="d-FdLsb-4e8FkBZbaTKH-76">
          <mxGeometry y="200" width="398" height="32" as="geometry" />
        </mxCell>
        <mxCell id="d-FdLsb-4e8FkBZbaTKH-84" value="+ getCurrentStatus() : : ApplicationStatus" style="text;strokeColor=none;fillColor=none;align=left;verticalAlign=top;spacingLeft=4;spacingRight=4;overflow=hidden;rotatable=0;points=[[0,0.5],[1,0.5]];portConstraint=eastwest;" vertex="1" parent="d-FdLsb-4e8FkBZbaTKH-76">
          <mxGeometry y="232" width="398" height="32" as="geometry" />
        </mxCell>
        <mxCell id="d-FdLsb-4e8FkBZbaTKH-85" value="FlatBooking" style="swimlane;fontStyle=1;align=center;verticalAlign=top;childLayout=stackLayout;horizontal=1;startSize=36.8;horizontalStack=0;resizeParent=1;resizeParentMax=0;resizeLast=0;collapsible=0;marginBottom=0;" vertex="1" parent="1">
          <mxGeometry x="1497" y="3788" width="243" height="192.8" as="geometry" />
        </mxCell>
        <mxCell id="d-FdLsb-4e8FkBZbaTKH-86" value="- receiptNumber : String" style="text;strokeColor=none;fillColor=none;align=left;verticalAlign=top;spacingLeft=4;spacingRight=4;overflow=hidden;rotatable=0;points=[[0,0.5],[1,0.5]];portConstraint=eastwest;" vertex="1" parent="d-FdLsb-4e8FkBZbaTKH-85">
          <mxGeometry y="36.8" width="243" height="37" as="geometry" />
        </mxCell>
        <mxCell id="d-FdLsb-4e8FkBZbaTKH-87" value="- bookingDate : Date" style="text;strokeColor=none;fillColor=none;align=left;verticalAlign=top;spacingLeft=4;spacingRight=4;overflow=hidden;rotatable=0;points=[[0,0.5],[1,0.5]];portConstraint=eastwest;" vertex="1" parent="d-FdLsb-4e8FkBZbaTKH-85">
          <mxGeometry y="73.8" width="243" height="37" as="geometry" />
        </mxCell>
        <mxCell id="d-FdLsb-4e8FkBZbaTKH-88" value="- flatType : FlatType" style="text;strokeColor=none;fillColor=none;align=left;verticalAlign=top;spacingLeft=4;spacingRight=4;overflow=hidden;rotatable=0;points=[[0,0.5],[1,0.5]];portConstraint=eastwest;" vertex="1" parent="d-FdLsb-4e8FkBZbaTKH-85">
          <mxGeometry y="110.8" width="243" height="37" as="geometry" />
        </mxCell>
        <mxCell id="d-FdLsb-4e8FkBZbaTKH-89" style="line;strokeWidth=1;fillColor=none;align=left;verticalAlign=middle;spacingTop=-1;spacingLeft=3;spacingRight=3;rotatable=0;labelPosition=right;points=[];portConstraint=eastwest;strokeColor=inherit;" vertex="1" parent="d-FdLsb-4e8FkBZbaTKH-85">
          <mxGeometry y="147.8" width="243" height="8" as="geometry" />
        </mxCell>
        <mxCell id="d-FdLsb-4e8FkBZbaTKH-90" value="+ autoGenerateDetails()" style="text;strokeColor=none;fillColor=none;align=left;verticalAlign=top;spacingLeft=4;spacingRight=4;overflow=hidden;rotatable=0;points=[[0,0.5],[1,0.5]];portConstraint=eastwest;" vertex="1" parent="d-FdLsb-4e8FkBZbaTKH-85">
          <mxGeometry y="155.8" width="243" height="37" as="geometry" />
        </mxCell>
        <mxCell id="d-FdLsb-4e8FkBZbaTKH-91" value="Enquiry" style="swimlane;fontStyle=1;align=center;verticalAlign=top;childLayout=stackLayout;horizontal=1;startSize=34.666666666666664;horizontalStack=0;resizeParent=1;resizeParentMax=0;resizeLast=0;collapsible=0;marginBottom=0;" vertex="1" parent="1">
          <mxGeometry x="4689" y="3483" width="289" height="217.66666666666666" as="geometry" />
        </mxCell>
        <mxCell id="d-FdLsb-4e8FkBZbaTKH-92" value="- content : String" style="text;strokeColor=none;fillColor=none;align=left;verticalAlign=top;spacingLeft=4;spacingRight=4;overflow=hidden;rotatable=0;points=[[0,0.5],[1,0.5]];portConstraint=eastwest;" vertex="1" parent="d-FdLsb-4e8FkBZbaTKH-91">
          <mxGeometry y="34.666666666666664" width="289" height="35" as="geometry" />
        </mxCell>
        <mxCell id="d-FdLsb-4e8FkBZbaTKH-93" value="- response : String" style="text;strokeColor=none;fillColor=none;align=left;verticalAlign=top;spacingLeft=4;spacingRight=4;overflow=hidden;rotatable=0;points=[[0,0.5],[1,0.5]];portConstraint=eastwest;" vertex="1" parent="d-FdLsb-4e8FkBZbaTKH-91">
          <mxGeometry y="69.66666666666666" width="289" height="35" as="geometry" />
        </mxCell>
        <mxCell id="d-FdLsb-4e8FkBZbaTKH-94" value="- timestamp : Date" style="text;strokeColor=none;fillColor=none;align=left;verticalAlign=top;spacingLeft=4;spacingRight=4;overflow=hidden;rotatable=0;points=[[0,0.5],[1,0.5]];portConstraint=eastwest;" vertex="1" parent="d-FdLsb-4e8FkBZbaTKH-91">
          <mxGeometry y="104.66666666666666" width="289" height="35" as="geometry" />
        </mxCell>
        <mxCell id="d-FdLsb-4e8FkBZbaTKH-95" style="line;strokeWidth=1;fillColor=none;align=left;verticalAlign=middle;spacingTop=-1;spacingLeft=3;spacingRight=3;rotatable=0;labelPosition=right;points=[];portConstraint=eastwest;strokeColor=inherit;" vertex="1" parent="d-FdLsb-4e8FkBZbaTKH-91">
          <mxGeometry y="139.66666666666666" width="289" height="8" as="geometry" />
        </mxCell>
        <mxCell id="d-FdLsb-4e8FkBZbaTKH-96" value="+ editContent(newMsg : String)" style="text;strokeColor=none;fillColor=none;align=left;verticalAlign=top;spacingLeft=4;spacingRight=4;overflow=hidden;rotatable=0;points=[[0,0.5],[1,0.5]];portConstraint=eastwest;" vertex="1" parent="d-FdLsb-4e8FkBZbaTKH-91">
          <mxGeometry y="147.66666666666666" width="289" height="35" as="geometry" />
        </mxCell>
        <mxCell id="d-FdLsb-4e8FkBZbaTKH-97" value="+ addResponse(response : String)" style="text;strokeColor=none;fillColor=none;align=left;verticalAlign=top;spacingLeft=4;spacingRight=4;overflow=hidden;rotatable=0;points=[[0,0.5],[1,0.5]];portConstraint=eastwest;" vertex="1" parent="d-FdLsb-4e8FkBZbaTKH-91">
          <mxGeometry y="182.66666666666666" width="289" height="35" as="geometry" />
        </mxCell>
        <mxCell id="d-FdLsb-4e8FkBZbaTKH-98" value="&lt;&lt;Boundary&gt;&gt;&#xa;AuthController" style="swimlane;fontStyle=1;align=center;verticalAlign=top;childLayout=stackLayout;horizontal=1;startSize=62.25;horizontalStack=0;resizeParent=1;resizeParentMax=0;resizeLast=0;collapsible=0;marginBottom=0;" vertex="1" parent="1">
          <mxGeometry x="86" y="3130" width="473" height="154.25" as="geometry" />
        </mxCell>
        <mxCell id="d-FdLsb-4e8FkBZbaTKH-99" style="line;strokeWidth=1;fillColor=none;align=left;verticalAlign=middle;spacingTop=-1;spacingLeft=3;spacingRight=3;rotatable=0;labelPosition=right;points=[];portConstraint=eastwest;strokeColor=inherit;" vertex="1" parent="d-FdLsb-4e8FkBZbaTKH-98">
          <mxGeometry y="62.25" width="473" height="8" as="geometry" />
        </mxCell>
        <mxCell id="d-FdLsb-4e8FkBZbaTKH-100" value="+ authenticate(nric : String, password : String) : : User" style="text;strokeColor=none;fillColor=none;align=left;verticalAlign=top;spacingLeft=4;spacingRight=4;overflow=hidden;rotatable=0;points=[[0,0.5],[1,0.5]];portConstraint=eastwest;" vertex="1" parent="d-FdLsb-4e8FkBZbaTKH-98">
          <mxGeometry y="70.25" width="473" height="42" as="geometry" />
        </mxCell>
        <mxCell id="d-FdLsb-4e8FkBZbaTKH-101" value="+ changePassword(user : User, newPassword : String)" style="text;strokeColor=none;fillColor=none;align=left;verticalAlign=top;spacingLeft=4;spacingRight=4;overflow=hidden;rotatable=0;points=[[0,0.5],[1,0.5]];portConstraint=eastwest;" vertex="1" parent="d-FdLsb-4e8FkBZbaTKH-98">
          <mxGeometry y="112.25" width="473" height="42" as="geometry" />
        </mxCell>
        <mxCell id="d-FdLsb-4e8FkBZbaTKH-102" value="&lt;&lt;Control&gt;&gt;&#xa;ApplicationController" style="swimlane;fontStyle=1;align=center;verticalAlign=top;childLayout=stackLayout;horizontal=1;startSize=53.5;horizontalStack=0;resizeParent=1;resizeParentMax=0;resizeLast=0;collapsible=0;marginBottom=0;" vertex="1" parent="1">
          <mxGeometry x="3679" y="3773" width="646" height="205.5" as="geometry" />
        </mxCell>
        <mxCell id="d-FdLsb-4e8FkBZbaTKH-103" style="line;strokeWidth=1;fillColor=none;align=left;verticalAlign=middle;spacingTop=-1;spacingLeft=3;spacingRight=3;rotatable=0;labelPosition=right;points=[];portConstraint=eastwest;strokeColor=inherit;" vertex="1" parent="d-FdLsb-4e8FkBZbaTKH-102">
          <mxGeometry y="53.5" width="646" height="8" as="geometry" />
        </mxCell>
        <mxCell id="d-FdLsb-4e8FkBZbaTKH-104" value="+ submitApplication(applicant : Applicant, project : BTOProject)" style="text;strokeColor=none;fillColor=none;align=left;verticalAlign=top;spacingLeft=4;spacingRight=4;overflow=hidden;rotatable=0;points=[[0,0.5],[1,0.5]];portConstraint=eastwest;" vertex="1" parent="d-FdLsb-4e8FkBZbaTKH-102">
          <mxGeometry y="61.5" width="646" height="36" as="geometry" />
        </mxCell>
        <mxCell id="d-FdLsb-4e8FkBZbaTKH-105" value="+ validateEligibility(applicant : Applicant, project : BTOProject) : : boolean" style="text;strokeColor=none;fillColor=none;align=left;verticalAlign=top;spacingLeft=4;spacingRight=4;overflow=hidden;rotatable=0;points=[[0,0.5],[1,0.5]];portConstraint=eastwest;" vertex="1" parent="d-FdLsb-4e8FkBZbaTKH-102">
          <mxGeometry y="97.5" width="646" height="36" as="geometry" />
        </mxCell>
        <mxCell id="d-FdLsb-4e8FkBZbaTKH-106" value="+ enforceStatusTransition(app : Application, newStatus : ApplicationStatus)" style="text;strokeColor=none;fillColor=none;align=left;verticalAlign=top;spacingLeft=4;spacingRight=4;overflow=hidden;rotatable=0;points=[[0,0.5],[1,0.5]];portConstraint=eastwest;" vertex="1" parent="d-FdLsb-4e8FkBZbaTKH-102">
          <mxGeometry y="133.5" width="646" height="36" as="geometry" />
        </mxCell>
        <mxCell id="d-FdLsb-4e8FkBZbaTKH-107" value="+ processWithdrawal(app : Application)" style="text;strokeColor=none;fillColor=none;align=left;verticalAlign=top;spacingLeft=4;spacingRight=4;overflow=hidden;rotatable=0;points=[[0,0.5],[1,0.5]];portConstraint=eastwest;" vertex="1" parent="d-FdLsb-4e8FkBZbaTKH-102">
          <mxGeometry y="169.5" width="646" height="36" as="geometry" />
        </mxCell>
        <mxCell id="d-FdLsb-4e8FkBZbaTKH-108" value="&lt;&lt;Control&gt;&gt;&#xa;OfficerRegistrationController" style="swimlane;fontStyle=1;align=center;verticalAlign=top;childLayout=stackLayout;horizontal=1;startSize=57;horizontalStack=0;resizeParent=1;resizeParentMax=0;resizeLast=0;collapsible=0;marginBottom=0;" vertex="1" parent="1">
          <mxGeometry x="619" y="3118" width="715" height="179" as="geometry" />
        </mxCell>
        <mxCell id="d-FdLsb-4e8FkBZbaTKH-109" style="line;strokeWidth=1;fillColor=none;align=left;verticalAlign=middle;spacingTop=-1;spacingLeft=3;spacingRight=3;rotatable=0;labelPosition=right;points=[];portConstraint=eastwest;strokeColor=inherit;" vertex="1" parent="d-FdLsb-4e8FkBZbaTKH-108">
          <mxGeometry y="57" width="715" height="8" as="geometry" />
        </mxCell>
        <mxCell id="d-FdLsb-4e8FkBZbaTKH-110" value="+ registerForProject(officer : HDBOfficer, project : BTOProject)" style="text;strokeColor=none;fillColor=none;align=left;verticalAlign=top;spacingLeft=4;spacingRight=4;overflow=hidden;rotatable=0;points=[[0,0.5],[1,0.5]];portConstraint=eastwest;" vertex="1" parent="d-FdLsb-4e8FkBZbaTKH-108">
          <mxGeometry y="65" width="715" height="38" as="geometry" />
        </mxCell>
        <mxCell id="d-FdLsb-4e8FkBZbaTKH-111" value="+ validateOfficerEligibility(officer : HDBOfficer, project : BTOProject) : : boolean" style="text;strokeColor=none;fillColor=none;align=left;verticalAlign=top;spacingLeft=4;spacingRight=4;overflow=hidden;rotatable=0;points=[[0,0.5],[1,0.5]];portConstraint=eastwest;" vertex="1" parent="d-FdLsb-4e8FkBZbaTKH-108">
          <mxGeometry y="103" width="715" height="38" as="geometry" />
        </mxCell>
        <mxCell id="d-FdLsb-4e8FkBZbaTKH-112" value="+ approveRegistration(officer : HDBOfficer, project : BTOProject)" style="text;strokeColor=none;fillColor=none;align=left;verticalAlign=top;spacingLeft=4;spacingRight=4;overflow=hidden;rotatable=0;points=[[0,0.5],[1,0.5]];portConstraint=eastwest;" vertex="1" parent="d-FdLsb-4e8FkBZbaTKH-108">
          <mxGeometry y="141" width="715" height="38" as="geometry" />
        </mxCell>
        <mxCell id="d-FdLsb-4e8FkBZbaTKH-113" value="&lt;&lt;Control&gt;&gt;&#xa;ProjectController" style="swimlane;fontStyle=1;align=center;verticalAlign=top;childLayout=stackLayout;horizontal=1;startSize=53.5;horizontalStack=0;resizeParent=1;resizeParentMax=0;resizeLast=0;collapsible=0;marginBottom=0;" vertex="1" parent="1">
          <mxGeometry x="1385" y="3106" width="479" height="205.5" as="geometry" />
        </mxCell>
        <mxCell id="d-FdLsb-4e8FkBZbaTKH-114" style="line;strokeWidth=1;fillColor=none;align=left;verticalAlign=middle;spacingTop=-1;spacingLeft=3;spacingRight=3;rotatable=0;labelPosition=right;points=[];portConstraint=eastwest;strokeColor=inherit;" vertex="1" parent="d-FdLsb-4e8FkBZbaTKH-113">
          <mxGeometry y="53.5" width="479" height="8" as="geometry" />
        </mxCell>
        <mxCell id="d-FdLsb-4e8FkBZbaTKH-115" value="+ createProject(details)" style="text;strokeColor=none;fillColor=none;align=left;verticalAlign=top;spacingLeft=4;spacingRight=4;overflow=hidden;rotatable=0;points=[[0,0.5],[1,0.5]];portConstraint=eastwest;" vertex="1" parent="d-FdLsb-4e8FkBZbaTKH-113">
          <mxGeometry y="61.5" width="479" height="36" as="geometry" />
        </mxCell>
        <mxCell id="d-FdLsb-4e8FkBZbaTKH-116" value="+ editProject(project : BTOProject, updated)" style="text;strokeColor=none;fillColor=none;align=left;verticalAlign=top;spacingLeft=4;spacingRight=4;overflow=hidden;rotatable=0;points=[[0,0.5],[1,0.5]];portConstraint=eastwest;" vertex="1" parent="d-FdLsb-4e8FkBZbaTKH-113">
          <mxGeometry y="97.5" width="479" height="36" as="geometry" />
        </mxCell>
        <mxCell id="d-FdLsb-4e8FkBZbaTKH-117" value="+ deleteProject(project : BTOProject)" style="text;strokeColor=none;fillColor=none;align=left;verticalAlign=top;spacingLeft=4;spacingRight=4;overflow=hidden;rotatable=0;points=[[0,0.5],[1,0.5]];portConstraint=eastwest;" vertex="1" parent="d-FdLsb-4e8FkBZbaTKH-113">
          <mxGeometry y="133.5" width="479" height="36" as="geometry" />
        </mxCell>
        <mxCell id="d-FdLsb-4e8FkBZbaTKH-118" value="+ toggleVisibility(project : BTOProject, flag : boolean)" style="text;strokeColor=none;fillColor=none;align=left;verticalAlign=top;spacingLeft=4;spacingRight=4;overflow=hidden;rotatable=0;points=[[0,0.5],[1,0.5]];portConstraint=eastwest;" vertex="1" parent="d-FdLsb-4e8FkBZbaTKH-113">
          <mxGeometry y="169.5" width="479" height="36" as="geometry" />
        </mxCell>
        <mxCell id="d-FdLsb-4e8FkBZbaTKH-119" value="&lt;&lt;Control&gt;&gt;&#xa;FilterController" style="swimlane;fontStyle=1;align=center;verticalAlign=top;childLayout=stackLayout;horizontal=1;startSize=57;horizontalStack=0;resizeParent=1;resizeParentMax=0;resizeLast=0;collapsible=0;marginBottom=0;" vertex="1" parent="1">
          <mxGeometry x="2061" y="3118" width="505" height="179" as="geometry" />
        </mxCell>
        <mxCell id="d-FdLsb-4e8FkBZbaTKH-120" style="line;strokeWidth=1;fillColor=none;align=left;verticalAlign=middle;spacingTop=-1;spacingLeft=3;spacingRight=3;rotatable=0;labelPosition=right;points=[];portConstraint=eastwest;strokeColor=inherit;" vertex="1" parent="d-FdLsb-4e8FkBZbaTKH-119">
          <mxGeometry y="57" width="505" height="8" as="geometry" />
        </mxCell>
        <mxCell id="d-FdLsb-4e8FkBZbaTKH-121" value="+ filterByFlatType(flatType : FlatType) : : List&lt;BTOProject&gt;" style="text;strokeColor=none;fillColor=none;align=left;verticalAlign=top;spacingLeft=4;spacingRight=4;overflow=hidden;rotatable=0;points=[[0,0.5],[1,0.5]];portConstraint=eastwest;" vertex="1" parent="d-FdLsb-4e8FkBZbaTKH-119">
          <mxGeometry y="65" width="505" height="38" as="geometry" />
        </mxCell>
        <mxCell id="d-FdLsb-4e8FkBZbaTKH-122" value="+ filterByNeighborhood(name : String) : : List&lt;BTOProject&gt;" style="text;strokeColor=none;fillColor=none;align=left;verticalAlign=top;spacingLeft=4;spacingRight=4;overflow=hidden;rotatable=0;points=[[0,0.5],[1,0.5]];portConstraint=eastwest;" vertex="1" parent="d-FdLsb-4e8FkBZbaTKH-119">
          <mxGeometry y="103" width="505" height="38" as="geometry" />
        </mxCell>
        <mxCell id="d-FdLsb-4e8FkBZbaTKH-123" value="+ saveFilterSettings(settings)" style="text;strokeColor=none;fillColor=none;align=left;verticalAlign=top;spacingLeft=4;spacingRight=4;overflow=hidden;rotatable=0;points=[[0,0.5],[1,0.5]];portConstraint=eastwest;" vertex="1" parent="d-FdLsb-4e8FkBZbaTKH-119">
          <mxGeometry y="141" width="505" height="38" as="geometry" />
        </mxCell>
        <mxCell id="d-FdLsb-4e8FkBZbaTKH-124" value="&lt;&lt;Control&gt;&gt;&#xa;EnquiryController" style="swimlane;fontStyle=1;align=center;verticalAlign=top;childLayout=stackLayout;horizontal=1;startSize=53.5;horizontalStack=0;resizeParent=1;resizeParentMax=0;resizeLast=0;collapsible=0;marginBottom=0;" vertex="1" parent="1">
          <mxGeometry x="4949" y="3773" width="625" height="205.5" as="geometry" />
        </mxCell>
        <mxCell id="d-FdLsb-4e8FkBZbaTKH-125" style="line;strokeWidth=1;fillColor=none;align=left;verticalAlign=middle;spacingTop=-1;spacingLeft=3;spacingRight=3;rotatable=0;labelPosition=right;points=[];portConstraint=eastwest;strokeColor=inherit;" vertex="1" parent="d-FdLsb-4e8FkBZbaTKH-124">
          <mxGeometry y="53.5" width="625" height="8" as="geometry" />
        </mxCell>
        <mxCell id="d-FdLsb-4e8FkBZbaTKH-126" value="+ submitEnquiry(applicant : Applicant, project : BTOProject, msg : String)" style="text;strokeColor=none;fillColor=none;align=left;verticalAlign=top;spacingLeft=4;spacingRight=4;overflow=hidden;rotatable=0;points=[[0,0.5],[1,0.5]];portConstraint=eastwest;" vertex="1" parent="d-FdLsb-4e8FkBZbaTKH-124">
          <mxGeometry y="61.5" width="625" height="36" as="geometry" />
        </mxCell>
        <mxCell id="d-FdLsb-4e8FkBZbaTKH-127" value="+ editEnquiry(enquiry : Enquiry, newMsg : String)" style="text;strokeColor=none;fillColor=none;align=left;verticalAlign=top;spacingLeft=4;spacingRight=4;overflow=hidden;rotatable=0;points=[[0,0.5],[1,0.5]];portConstraint=eastwest;" vertex="1" parent="d-FdLsb-4e8FkBZbaTKH-124">
          <mxGeometry y="97.5" width="625" height="36" as="geometry" />
        </mxCell>
        <mxCell id="d-FdLsb-4e8FkBZbaTKH-128" value="+ deleteEnquiry(enquiry : Enquiry)" style="text;strokeColor=none;fillColor=none;align=left;verticalAlign=top;spacingLeft=4;spacingRight=4;overflow=hidden;rotatable=0;points=[[0,0.5],[1,0.5]];portConstraint=eastwest;" vertex="1" parent="d-FdLsb-4e8FkBZbaTKH-124">
          <mxGeometry y="133.5" width="625" height="36" as="geometry" />
        </mxCell>
        <mxCell id="d-FdLsb-4e8FkBZbaTKH-129" value="+ replyToEnquiry(officer : HDBOfficer, enquiry : Enquiry, response : String)" style="text;strokeColor=none;fillColor=none;align=left;verticalAlign=top;spacingLeft=4;spacingRight=4;overflow=hidden;rotatable=0;points=[[0,0.5],[1,0.5]];portConstraint=eastwest;" vertex="1" parent="d-FdLsb-4e8FkBZbaTKH-124">
          <mxGeometry y="169.5" width="625" height="36" as="geometry" />
        </mxCell>
        <mxCell id="d-FdLsb-4e8FkBZbaTKH-130" value="&lt;&lt;Control&gt;&gt;&#xa;BookingController" style="swimlane;fontStyle=1;align=center;verticalAlign=top;childLayout=stackLayout;horizontal=1;startSize=62.25;horizontalStack=0;resizeParent=1;resizeParentMax=0;resizeLast=0;collapsible=0;marginBottom=0;" vertex="1" parent="1">
          <mxGeometry x="5417" y="4045" width="597" height="154.25" as="geometry" />
        </mxCell>
        <mxCell id="d-FdLsb-4e8FkBZbaTKH-131" style="line;strokeWidth=1;fillColor=none;align=left;verticalAlign=middle;spacingTop=-1;spacingLeft=3;spacingRight=3;rotatable=0;labelPosition=right;points=[];portConstraint=eastwest;strokeColor=inherit;" vertex="1" parent="d-FdLsb-4e8FkBZbaTKH-130">
          <mxGeometry y="62.25" width="597" height="8" as="geometry" />
        </mxCell>
        <mxCell id="d-FdLsb-4e8FkBZbaTKH-132" value="+ bookFlat(officer : HDBOfficer, app : Application, flatType : FlatType)" style="text;strokeColor=none;fillColor=none;align=left;verticalAlign=top;spacingLeft=4;spacingRight=4;overflow=hidden;rotatable=0;points=[[0,0.5],[1,0.5]];portConstraint=eastwest;" vertex="1" parent="d-FdLsb-4e8FkBZbaTKH-130">
          <mxGeometry y="70.25" width="597" height="42" as="geometry" />
        </mxCell>
        <mxCell id="d-FdLsb-4e8FkBZbaTKH-133" value="+ generateReceipt(app : Application)" style="text;strokeColor=none;fillColor=none;align=left;verticalAlign=top;spacingLeft=4;spacingRight=4;overflow=hidden;rotatable=0;points=[[0,0.5],[1,0.5]];portConstraint=eastwest;" vertex="1" parent="d-FdLsb-4e8FkBZbaTKH-130">
          <mxGeometry y="112.25" width="597" height="42" as="geometry" />
        </mxCell>
        <mxCell id="d-FdLsb-4e8FkBZbaTKH-134" value="LSP: Subclasses can replace User&#xa;Encapsulation: fields private, accessed via methods" style="align=left;spacingLeft=4;" vertex="1" parent="1">
          <mxGeometry x="2197" y="1752" width="632" height="36" as="geometry" />
        </mxCell>
        <mxCell id="d-FdLsb-4e8FkBZbaTKH-135" value="Polymorphism: can be treated as a User" style="align=left;spacingLeft=4;" vertex="1" parent="1">
          <mxGeometry x="3254" y="2054" width="298" height="36" as="geometry" />
        </mxCell>
        <mxCell id="d-FdLsb-4e8FkBZbaTKH-136" value="Inheritance: extends Applicant to reuse apply logic" style="align=left;spacingLeft=4;" vertex="1" parent="1">
          <mxGeometry x="4358" y="2392" width="378" height="36" as="geometry" />
        </mxCell>
        <mxCell id="d-FdLsb-4e8FkBZbaTKH-137" value="SRP: manages only project &amp; approval logic" style="align=left;spacingLeft=4;" vertex="1" parent="1">
          <mxGeometry x="2235" y="2392" width="324" height="36" as="geometry" />
        </mxCell>
        <mxCell id="d-FdLsb-4e8FkBZbaTKH-138" value="Encapsulation: controls its own unit counts &amp; visibility" style="align=left;spacingLeft=4;" vertex="1" parent="1">
          <mxGeometry x="3860" y="2766" width="402" height="36" as="geometry" />
        </mxCell>
        <mxCell id="d-FdLsb-4e8FkBZbaTKH-139" value="OCP: allow new status behaviors via state classes" style="align=left;spacingLeft=4;" vertex="1" parent="1">
          <mxGeometry x="2616" y="3199" width="366" height="36" as="geometry" />
        </mxCell>
        <mxCell id="d-FdLsb-4e8FkBZbaTKH-140" value="SRP: handles booking data and receipt logic" style="align=left;spacingLeft=4;" vertex="1" parent="1">
          <mxGeometry x="2780" y="3573" width="326" height="36" as="geometry" />
        </mxCell>
        <mxCell id="d-FdLsb-4e8FkBZbaTKH-141" value="SRP: encapsulates enquiry content &amp; response" style="align=left;spacingLeft=4;" vertex="1" parent="1">
          <mxGeometry x="4852" y="3199" width="344" height="36" as="geometry" />
        </mxCell>
        <mxCell id="d-FdLsb-4e8FkBZbaTKH-142" value="SRP: handles only authentication&#xa;DIP: a boundary interface" style="align=left;spacingLeft=4;" vertex="1" parent="1">
          <mxGeometry x="368" y="2766" width="446" height="36" as="geometry" />
        </mxCell>
        <mxCell id="d-FdLsb-4e8FkBZbaTKH-143" value="DIP: depends on Application abstraction" style="align=left;spacingLeft=4;" vertex="1" parent="1">
          <mxGeometry x="4341" y="3573" width="298" height="36" as="geometry" />
        </mxCell>
        <mxCell id="d-FdLsb-4e8FkBZbaTKH-144" value="SRP: handles officer registration workflow" style="align=left;spacingLeft=4;" vertex="1" parent="1">
          <mxGeometry x="864" y="2766" width="315" height="36" as="geometry" />
        </mxCell>
        <mxCell id="d-FdLsb-4e8FkBZbaTKH-145" value="SRP: manages only project CRUD &amp; visibility" style="align=left;spacingLeft=4;" vertex="1" parent="1">
          <mxGeometry x="1344" y="2766" width="328" height="36" as="geometry" />
        </mxCell>
        <mxCell id="d-FdLsb-4e8FkBZbaTKH-146" value="ISP: isolates filtering behavior" style="align=left;spacingLeft=4;" vertex="1" parent="1">
          <mxGeometry x="2607" y="2766" width="228" height="36" as="geometry" />
        </mxCell>
        <mxCell id="d-FdLsb-4e8FkBZbaTKH-147" value="SRP: handles only enquiry operations" style="align=left;spacingLeft=4;" vertex="1" parent="1">
          <mxGeometry x="5306" y="3573" width="277" height="36" as="geometry" />
        </mxCell>
        <mxCell id="d-FdLsb-4e8FkBZbaTKH-148" value="SRP: handles booking &amp; receipt generation" style="align=left;spacingLeft=4;" vertex="1" parent="1">
          <mxGeometry x="5653" y="3866" width="318" height="36" as="geometry" />
        </mxCell>
        <mxCell id="d-FdLsb-4e8FkBZbaTKH-149" value="" style="curved=1;dashed=1;dashPattern=2 3;startArrow=none;endArrow=none;exitX=0.5;exitY=1;entryX=0.5;entryY=0;rounded=0;" edge="1" parent="1" source="d-FdLsb-4e8FkBZbaTKH-134" target="d-FdLsb-4e8FkBZbaTKH-21">
          <mxGeometry relative="1" as="geometry">
            <Array as="points" />
          </mxGeometry>
        </mxCell>
        <mxCell id="d-FdLsb-4e8FkBZbaTKH-150" value="" style="curved=1;dashed=1;dashPattern=2 3;startArrow=none;endArrow=none;exitX=0.5;exitY=1;entryX=0.54;entryY=0;rounded=0;" edge="1" parent="1" source="d-FdLsb-4e8FkBZbaTKH-135" target="d-FdLsb-4e8FkBZbaTKH-29">
          <mxGeometry relative="1" as="geometry">
            <Array as="points">
              <mxPoint x="3403" y="2229" />
            </Array>
          </mxGeometry>
        </mxCell>
        <mxCell id="d-FdLsb-4e8FkBZbaTKH-151" value="" style="curved=1;dashed=1;dashPattern=2 3;startArrow=none;endArrow=none;exitX=0.32;exitY=1;entryX=0.96;entryY=0;rounded=0;" edge="1" parent="1" source="d-FdLsb-4e8FkBZbaTKH-136" target="d-FdLsb-4e8FkBZbaTKH-40">
          <mxGeometry relative="1" as="geometry">
            <Array as="points">
              <mxPoint x="3881" y="2591" />
            </Array>
          </mxGeometry>
        </mxCell>
        <mxCell id="d-FdLsb-4e8FkBZbaTKH-152" value="" style="curved=1;dashed=1;dashPattern=2 3;startArrow=none;endArrow=none;exitX=0.5;exitY=1;entryX=1;entryY=0.06;rounded=0;" edge="1" parent="1" source="d-FdLsb-4e8FkBZbaTKH-137" target="d-FdLsb-4e8FkBZbaTKH-50">
          <mxGeometry relative="1" as="geometry">
            <Array as="points">
              <mxPoint x="2397" y="2591" />
            </Array>
          </mxGeometry>
        </mxCell>
        <mxCell id="d-FdLsb-4e8FkBZbaTKH-153" value="" style="curved=1;dashed=1;dashPattern=2 3;startArrow=none;endArrow=none;exitX=0.5;exitY=1;entryX=1;entryY=0.18;rounded=0;" edge="1" parent="1" source="d-FdLsb-4e8FkBZbaTKH-138" target="d-FdLsb-4e8FkBZbaTKH-62">
          <mxGeometry relative="1" as="geometry">
            <Array as="points">
              <mxPoint x="4051" y="2988" />
            </Array>
          </mxGeometry>
        </mxCell>
        <mxCell id="d-FdLsb-4e8FkBZbaTKH-154" value="" style="curved=1;dashed=1;dashPattern=2 3;startArrow=none;endArrow=none;exitX=0.5;exitY=0.99;entryX=1;entryY=0.45;rounded=0;" edge="1" parent="1" source="d-FdLsb-4e8FkBZbaTKH-139" target="d-FdLsb-4e8FkBZbaTKH-76">
          <mxGeometry relative="1" as="geometry">
            <Array as="points">
              <mxPoint x="2799" y="3434" />
            </Array>
          </mxGeometry>
        </mxCell>
        <mxCell id="d-FdLsb-4e8FkBZbaTKH-155" value="" style="curved=1;dashed=1;dashPattern=2 3;startArrow=none;endArrow=none;exitX=0.5;exitY=0.99;entryX=1;entryY=0.43;rounded=0;" edge="1" parent="1" source="d-FdLsb-4e8FkBZbaTKH-140" target="d-FdLsb-4e8FkBZbaTKH-85">
          <mxGeometry relative="1" as="geometry">
            <Array as="points">
              <mxPoint x="2944" y="3748" />
            </Array>
          </mxGeometry>
        </mxCell>
        <mxCell id="d-FdLsb-4e8FkBZbaTKH-156" value="" style="curved=1;dashed=1;dashPattern=2 3;startArrow=none;endArrow=none;exitX=0.5;exitY=0.99;entryX=0.95;entryY=0;rounded=0;" edge="1" parent="1" source="d-FdLsb-4e8FkBZbaTKH-141" target="d-FdLsb-4e8FkBZbaTKH-91">
          <mxGeometry relative="1" as="geometry">
            <Array as="points">
              <mxPoint x="5024" y="3434" />
            </Array>
          </mxGeometry>
        </mxCell>
        <mxCell id="d-FdLsb-4e8FkBZbaTKH-157" value="" style="curved=1;dashed=1;dashPattern=2 3;startArrow=none;endArrow=none;exitX=0.5;exitY=1;entryX=0.72;entryY=0;rounded=0;" edge="1" parent="1" source="d-FdLsb-4e8FkBZbaTKH-142" target="d-FdLsb-4e8FkBZbaTKH-98">
          <mxGeometry relative="1" as="geometry">
            <Array as="points">
              <mxPoint x="591" y="2988" />
            </Array>
          </mxGeometry>
        </mxCell>
        <mxCell id="d-FdLsb-4e8FkBZbaTKH-158" value="" style="curved=1;dashed=1;dashPattern=2 3;startArrow=none;endArrow=none;exitX=0.5;exitY=0.99;entryX=1;entryY=0.09;rounded=0;" edge="1" parent="1" source="d-FdLsb-4e8FkBZbaTKH-143" target="d-FdLsb-4e8FkBZbaTKH-102">
          <mxGeometry relative="1" as="geometry">
            <Array as="points">
              <mxPoint x="4490" y="3748" />
            </Array>
          </mxGeometry>
        </mxCell>
        <mxCell id="d-FdLsb-4e8FkBZbaTKH-159" value="" style="curved=1;dashed=1;dashPattern=2 3;startArrow=none;endArrow=none;exitX=0.54;exitY=1;entryX=0.61;entryY=0;rounded=0;" edge="1" parent="1" source="d-FdLsb-4e8FkBZbaTKH-144" target="d-FdLsb-4e8FkBZbaTKH-108">
          <mxGeometry relative="1" as="geometry">
            <Array as="points">
              <mxPoint x="1154" y="2988" />
            </Array>
          </mxGeometry>
        </mxCell>
        <mxCell id="d-FdLsb-4e8FkBZbaTKH-160" value="" style="curved=1;dashed=1;dashPattern=2 3;startArrow=none;endArrow=none;exitX=0.54;exitY=1;entryX=0.52;entryY=0;rounded=0;" edge="1" parent="1" source="d-FdLsb-4e8FkBZbaTKH-145" target="d-FdLsb-4e8FkBZbaTKH-113">
          <mxGeometry relative="1" as="geometry">
            <Array as="points">
              <mxPoint x="1641" y="2988" />
            </Array>
          </mxGeometry>
        </mxCell>
        <mxCell id="d-FdLsb-4e8FkBZbaTKH-161" value="" style="curved=1;dashed=1;dashPattern=2 3;startArrow=none;endArrow=none;exitX=0.5;exitY=1;entryX=0.85;entryY=0;rounded=0;" edge="1" parent="1" source="d-FdLsb-4e8FkBZbaTKH-146" target="d-FdLsb-4e8FkBZbaTKH-119">
          <mxGeometry relative="1" as="geometry">
            <Array as="points">
              <mxPoint x="2720" y="2988" />
            </Array>
          </mxGeometry>
        </mxCell>
        <mxCell id="d-FdLsb-4e8FkBZbaTKH-162" value="" style="curved=1;dashed=1;dashPattern=2 3;startArrow=none;endArrow=none;exitX=0.5;exitY=0.99;entryX=0.74;entryY=0;rounded=0;" edge="1" parent="1" source="d-FdLsb-4e8FkBZbaTKH-147" target="d-FdLsb-4e8FkBZbaTKH-124">
          <mxGeometry relative="1" as="geometry">
            <Array as="points">
              <mxPoint x="5445" y="3748" />
            </Array>
          </mxGeometry>
        </mxCell>
        <mxCell id="d-FdLsb-4e8FkBZbaTKH-163" value="" style="curved=1;dashed=1;dashPattern=2 3;startArrow=none;endArrow=none;exitX=0.5;exitY=0.99;entryX=0.63;entryY=0;rounded=0;" edge="1" parent="1" source="d-FdLsb-4e8FkBZbaTKH-148" target="d-FdLsb-4e8FkBZbaTKH-130">
          <mxGeometry relative="1" as="geometry">
            <Array as="points">
              <mxPoint x="5812" y="4020" />
            </Array>
          </mxGeometry>
        </mxCell>
        <mxCell id="d-FdLsb-4e8FkBZbaTKH-164" value="" style="curved=1;startArrow=block;startSize=16;startFill=0;endArrow=none;exitX=1;exitY=0.62;entryX=0.5;entryY=0;rounded=0;" edge="1" parent="1" source="d-FdLsb-4e8FkBZbaTKH-21" target="d-FdLsb-4e8FkBZbaTKH-29">
          <mxGeometry relative="1" as="geometry">
            <Array as="points">
              <mxPoint x="3383" y="2229" />
            </Array>
          </mxGeometry>
        </mxCell>
        <mxCell id="d-FdLsb-4e8FkBZbaTKH-165" value="" style="curved=1;startArrow=block;startSize=16;startFill=0;endArrow=none;exitX=0.27;exitY=1;entryX=0.21;entryY=0;rounded=0;" edge="1" parent="1" source="d-FdLsb-4e8FkBZbaTKH-29" target="d-FdLsb-4e8FkBZbaTKH-40">
          <mxGeometry relative="1" as="geometry">
            <Array as="points">
              <mxPoint x="3268" y="2591" />
            </Array>
          </mxGeometry>
        </mxCell>
        <mxCell id="d-FdLsb-4e8FkBZbaTKH-166" value="" style="curved=1;startArrow=block;startSize=16;startFill=0;endArrow=none;exitX=0;exitY=0.58;entryX=0;entryY=0.31;rounded=0;" edge="1" parent="1" source="d-FdLsb-4e8FkBZbaTKH-21" target="d-FdLsb-4e8FkBZbaTKH-50">
          <mxGeometry relative="1" as="geometry">
            <Array as="points">
              <mxPoint x="1127" y="2229" />
              <mxPoint x="1127" y="2591" />
            </Array>
          </mxGeometry>
        </mxCell>
        <mxCell id="d-FdLsb-4e8FkBZbaTKH-167" value="" style="curved=1;startArrow=diamondThin;startSize=14;startFill=1;endArrow=none;exitX=0;exitY=0.54;entryX=0.15;entryY=0;rounded=0;" edge="1" parent="1" source="d-FdLsb-4e8FkBZbaTKH-29" target="d-FdLsb-4e8FkBZbaTKH-76">
          <mxGeometry relative="1" as="geometry">
            <Array as="points">
              <mxPoint x="51" y="2591" />
              <mxPoint x="51" y="3434" />
            </Array>
          </mxGeometry>
        </mxCell>
        <mxCell id="d-FdLsb-4e8FkBZbaTKH-168" value="1" style="edgeLabel;resizable=0;labelBackgroundColor=none;fontSize=12;align=right;verticalAlign=top;" vertex="1" parent="d-FdLsb-4e8FkBZbaTKH-167">
          <mxGeometry x="-1" relative="1" as="geometry" />
        </mxCell>
        <mxCell id="d-FdLsb-4e8FkBZbaTKH-169" value="0..1" style="edgeLabel;resizable=0;labelBackgroundColor=none;fontSize=12;align=left;verticalAlign=bottom;" vertex="1" parent="d-FdLsb-4e8FkBZbaTKH-167">
          <mxGeometry x="1" relative="1" as="geometry" />
        </mxCell>
        <mxCell id="d-FdLsb-4e8FkBZbaTKH-170" value="" style="curved=1;startArrow=diamondThin;startSize=14;startFill=1;endArrow=none;exitX=1;exitY=0.59;entryX=0.46;entryY=0;rounded=0;" edge="1" parent="1" source="d-FdLsb-4e8FkBZbaTKH-29" target="d-FdLsb-4e8FkBZbaTKH-91">
          <mxGeometry relative="1" as="geometry">
            <Array as="points">
              <mxPoint x="4817" y="2591" />
              <mxPoint x="4817" y="3434" />
            </Array>
          </mxGeometry>
        </mxCell>
        <mxCell id="d-FdLsb-4e8FkBZbaTKH-171" value="1" style="edgeLabel;resizable=0;labelBackgroundColor=none;fontSize=12;align=left;verticalAlign=top;" vertex="1" parent="d-FdLsb-4e8FkBZbaTKH-170">
          <mxGeometry x="-1" relative="1" as="geometry" />
        </mxCell>
        <mxCell id="d-FdLsb-4e8FkBZbaTKH-172" value="*" style="edgeLabel;resizable=0;labelBackgroundColor=none;fontSize=12;align=right;verticalAlign=bottom;" vertex="1" parent="d-FdLsb-4e8FkBZbaTKH-170">
          <mxGeometry x="1" relative="1" as="geometry" />
        </mxCell>
        <mxCell id="d-FdLsb-4e8FkBZbaTKH-173" value="" style="curved=1;dashed=1;startArrow=none;endArrow=open;endSize=12;exitX=0;exitY=0.54;entryX=0.51;entryY=0;rounded=0;" edge="1" parent="1" source="d-FdLsb-4e8FkBZbaTKH-29" target="d-FdLsb-4e8FkBZbaTKH-98">
          <mxGeometry relative="1" as="geometry">
            <Array as="points">
              <mxPoint x="333" y="2591" />
              <mxPoint x="333" y="2988" />
            </Array>
          </mxGeometry>
        </mxCell>
        <mxCell id="d-FdLsb-4e8FkBZbaTKH-174" value="" style="curved=1;dashed=1;startArrow=none;endArrow=open;endSize=12;exitX=1;exitY=0.64;entryX=0.88;entryY=0;rounded=0;" edge="1" parent="1" source="d-FdLsb-4e8FkBZbaTKH-29" target="d-FdLsb-4e8FkBZbaTKH-102">
          <mxGeometry relative="1" as="geometry">
            <Array as="points">
              <mxPoint x="4306" y="2591" />
              <mxPoint x="4306" y="3748" />
            </Array>
          </mxGeometry>
        </mxCell>
        <mxCell id="d-FdLsb-4e8FkBZbaTKH-175" value="" style="curved=1;dashed=1;startArrow=none;endArrow=open;endSize=12;exitX=0;exitY=0.65;entryX=0.72;entryY=0;rounded=0;" edge="1" parent="1" source="d-FdLsb-4e8FkBZbaTKH-29" target="d-FdLsb-4e8FkBZbaTKH-119">
          <mxGeometry relative="1" as="geometry">
            <Array as="points">
              <mxPoint x="2572" y="2591" />
              <mxPoint x="2572" y="2988" />
            </Array>
          </mxGeometry>
        </mxCell>
        <mxCell id="d-FdLsb-4e8FkBZbaTKH-176" value="" style="curved=1;dashed=1;startArrow=none;endArrow=open;endSize=12;exitX=1;exitY=0.57;entryX=0.51;entryY=0;rounded=0;" edge="1" parent="1" source="d-FdLsb-4e8FkBZbaTKH-29" target="d-FdLsb-4e8FkBZbaTKH-124">
          <mxGeometry relative="1" as="geometry">
            <Array as="points">
              <mxPoint x="5271" y="2591" />
              <mxPoint x="5271" y="3748" />
            </Array>
          </mxGeometry>
        </mxCell>
        <mxCell id="d-FdLsb-4e8FkBZbaTKH-177" value="handles" style="curved=1;startArrow=diamondThin;startSize=14;startFill=1;endArrow=none;exitX=0.49;exitY=1;entryX=0.12;entryY=0;rounded=0;" edge="1" parent="1" source="d-FdLsb-4e8FkBZbaTKH-40" target="d-FdLsb-4e8FkBZbaTKH-62">
          <mxGeometry relative="1" as="geometry">
            <Array as="points">
              <mxPoint x="3495" y="2988" />
            </Array>
          </mxGeometry>
        </mxCell>
        <mxCell id="d-FdLsb-4e8FkBZbaTKH-178" value="1" style="edgeLabel;resizable=0;labelBackgroundColor=none;fontSize=12;align=right;verticalAlign=top;" vertex="1" parent="d-FdLsb-4e8FkBZbaTKH-177">
          <mxGeometry x="-1" relative="1" as="geometry" />
        </mxCell>
        <mxCell id="d-FdLsb-4e8FkBZbaTKH-179" value="*" style="edgeLabel;resizable=0;labelBackgroundColor=none;fontSize=12;align=left;verticalAlign=bottom;" vertex="1" parent="d-FdLsb-4e8FkBZbaTKH-177">
          <mxGeometry x="1" relative="1" as="geometry" />
        </mxCell>
        <mxCell id="d-FdLsb-4e8FkBZbaTKH-180" value="" style="curved=1;dashed=1;startArrow=none;endArrow=open;endSize=12;exitX=0;exitY=0.57;entryX=0.41;entryY=0;rounded=0;" edge="1" parent="1" source="d-FdLsb-4e8FkBZbaTKH-40" target="d-FdLsb-4e8FkBZbaTKH-98">
          <mxGeometry relative="1" as="geometry">
            <Array as="points">
              <mxPoint x="207" y="2988" />
            </Array>
          </mxGeometry>
        </mxCell>
        <mxCell id="d-FdLsb-4e8FkBZbaTKH-181" value="" style="curved=1;dashed=1;startArrow=none;endArrow=open;endSize=12;exitX=0;exitY=0.59;entryX=0.59;entryY=0;rounded=0;" edge="1" parent="1" source="d-FdLsb-4e8FkBZbaTKH-40" target="d-FdLsb-4e8FkBZbaTKH-108">
          <mxGeometry relative="1" as="geometry">
            <Array as="points">
              <mxPoint x="1122" y="2988" />
            </Array>
          </mxGeometry>
        </mxCell>
        <mxCell id="d-FdLsb-4e8FkBZbaTKH-182" value="" style="curved=1;dashed=1;startArrow=none;endArrow=open;endSize=12;exitX=1;exitY=0.78;entryX=0.85;entryY=0;rounded=0;" edge="1" parent="1" source="d-FdLsb-4e8FkBZbaTKH-40" target="d-FdLsb-4e8FkBZbaTKH-102">
          <mxGeometry relative="1" as="geometry">
            <Array as="points">
              <mxPoint x="4276" y="2988" />
              <mxPoint x="4276" y="3748" />
            </Array>
          </mxGeometry>
        </mxCell>
        <mxCell id="d-FdLsb-4e8FkBZbaTKH-183" value="" style="curved=1;dashed=1;startArrow=none;endArrow=open;endSize=12;exitX=1;exitY=0.62;entryX=0.49;entryY=0;rounded=0;" edge="1" parent="1" source="d-FdLsb-4e8FkBZbaTKH-40" target="d-FdLsb-4e8FkBZbaTKH-124">
          <mxGeometry relative="1" as="geometry">
            <Array as="points">
              <mxPoint x="5251" y="2988" />
              <mxPoint x="5251" y="3748" />
            </Array>
          </mxGeometry>
        </mxCell>
        <mxCell id="d-FdLsb-4e8FkBZbaTKH-184" value="" style="curved=1;dashed=1;startArrow=none;endArrow=open;endSize=12;exitX=1;exitY=0.6;entryX=0.37;entryY=0;rounded=0;" edge="1" parent="1" source="d-FdLsb-4e8FkBZbaTKH-40" target="d-FdLsb-4e8FkBZbaTKH-130">
          <mxGeometry relative="1" as="geometry">
            <Array as="points">
              <mxPoint x="5618" y="2988" />
              <mxPoint x="5618" y="4020" />
            </Array>
          </mxGeometry>
        </mxCell>
        <mxCell id="d-FdLsb-4e8FkBZbaTKH-185" value="manages" style="curved=1;startArrow=diamondThin;startSize=14;startFill=1;endArrow=none;exitX=1;exitY=0.63;entryX=0;entryY=0.05;rounded=0;" edge="1" parent="1" source="d-FdLsb-4e8FkBZbaTKH-50" target="d-FdLsb-4e8FkBZbaTKH-62">
          <mxGeometry relative="1" as="geometry">
            <Array as="points">
              <mxPoint x="3413" y="2988" />
            </Array>
          </mxGeometry>
        </mxCell>
        <mxCell id="d-FdLsb-4e8FkBZbaTKH-186" value="1" style="edgeLabel;resizable=0;labelBackgroundColor=none;fontSize=12;align=left;verticalAlign=top;" vertex="1" parent="d-FdLsb-4e8FkBZbaTKH-185">
          <mxGeometry x="-1" relative="1" as="geometry" />
        </mxCell>
        <mxCell id="d-FdLsb-4e8FkBZbaTKH-187" value="*" style="edgeLabel;resizable=0;labelBackgroundColor=none;fontSize=12;align=right;verticalAlign=bottom;" vertex="1" parent="d-FdLsb-4e8FkBZbaTKH-185">
          <mxGeometry x="1" relative="1" as="geometry" />
        </mxCell>
        <mxCell id="d-FdLsb-4e8FkBZbaTKH-188" value="" style="curved=1;dashed=1;startArrow=none;endArrow=open;endSize=12;exitX=0;exitY=0.6;entryX=0.39;entryY=0;rounded=0;" edge="1" parent="1" source="d-FdLsb-4e8FkBZbaTKH-50" target="d-FdLsb-4e8FkBZbaTKH-98">
          <mxGeometry relative="1" as="geometry">
            <Array as="points">
              <mxPoint x="187" y="2988" />
            </Array>
          </mxGeometry>
        </mxCell>
        <mxCell id="d-FdLsb-4e8FkBZbaTKH-189" value="" style="curved=1;dashed=1;startArrow=none;endArrow=open;endSize=12;exitX=0;exitY=0.76;entryX=0.2;entryY=0;rounded=0;" edge="1" parent="1" source="d-FdLsb-4e8FkBZbaTKH-50" target="d-FdLsb-4e8FkBZbaTKH-113">
          <mxGeometry relative="1" as="geometry">
            <Array as="points">
              <mxPoint x="1333" y="2988" />
            </Array>
          </mxGeometry>
        </mxCell>
        <mxCell id="d-FdLsb-4e8FkBZbaTKH-190" value="" style="curved=1;dashed=1;startArrow=none;endArrow=open;endSize=12;exitX=0;exitY=0.65;entryX=0.39;entryY=0;rounded=0;" edge="1" parent="1" source="d-FdLsb-4e8FkBZbaTKH-50" target="d-FdLsb-4e8FkBZbaTKH-108">
          <mxGeometry relative="1" as="geometry">
            <Array as="points">
              <mxPoint x="794" y="2988" />
            </Array>
          </mxGeometry>
        </mxCell>
        <mxCell id="d-FdLsb-4e8FkBZbaTKH-191" value="" style="curved=1;dashed=1;startArrow=none;endArrow=open;endSize=12;exitX=1;exitY=0.66;entryX=0;entryY=0.27;rounded=0;" edge="1" parent="1" source="d-FdLsb-4e8FkBZbaTKH-50" target="d-FdLsb-4e8FkBZbaTKH-102">
          <mxGeometry relative="1" as="geometry">
            <Array as="points">
              <mxPoint x="3142" y="2988" />
              <mxPoint x="3142" y="3748" />
            </Array>
          </mxGeometry>
        </mxCell>
        <mxCell id="d-FdLsb-4e8FkBZbaTKH-192" value="" style="curved=1;dashed=1;startArrow=none;endArrow=open;endSize=12;exitX=1;exitY=0.56;entryX=0.46;entryY=0;rounded=0;" edge="1" parent="1" source="d-FdLsb-4e8FkBZbaTKH-50" target="d-FdLsb-4e8FkBZbaTKH-124">
          <mxGeometry relative="1" as="geometry">
            <Array as="points">
              <mxPoint x="5231" y="2988" />
              <mxPoint x="5231" y="3748" />
            </Array>
          </mxGeometry>
        </mxCell>
        <mxCell id="d-FdLsb-4e8FkBZbaTKH-193" value="" style="curved=1;dashed=1;startArrow=none;endArrow=open;endSize=12;exitX=0.68;exitY=1;entryX=0.36;entryY=0;rounded=0;" edge="1" parent="1" source="d-FdLsb-4e8FkBZbaTKH-50" target="d-FdLsb-4e8FkBZbaTKH-119">
          <mxGeometry relative="1" as="geometry">
            <Array as="points">
              <mxPoint x="2149" y="2988" />
            </Array>
          </mxGeometry>
        </mxCell>
        <mxCell id="d-FdLsb-4e8FkBZbaTKH-194" value="" style="curved=1;startArrow=diamondThin;startSize=14;startFill=1;endArrow=none;exitX=0;exitY=0.53;entryX=0.1;entryY=0;rounded=0;" edge="1" parent="1" source="d-FdLsb-4e8FkBZbaTKH-62" target="d-FdLsb-4e8FkBZbaTKH-76">
          <mxGeometry relative="1" as="geometry">
            <Array as="points">
              <mxPoint x="31" y="3434" />
            </Array>
          </mxGeometry>
        </mxCell>
        <mxCell id="d-FdLsb-4e8FkBZbaTKH-195" value="1" style="edgeLabel;resizable=0;labelBackgroundColor=none;fontSize=12;align=right;verticalAlign=top;" vertex="1" parent="d-FdLsb-4e8FkBZbaTKH-194">
          <mxGeometry x="-1" relative="1" as="geometry" />
        </mxCell>
        <mxCell id="d-FdLsb-4e8FkBZbaTKH-196" value="*" style="edgeLabel;resizable=0;labelBackgroundColor=none;fontSize=12;align=left;verticalAlign=bottom;" vertex="1" parent="d-FdLsb-4e8FkBZbaTKH-194">
          <mxGeometry x="1" relative="1" as="geometry" />
        </mxCell>
        <mxCell id="d-FdLsb-4e8FkBZbaTKH-197" value="" style="curved=1;startArrow=diamondThin;startSize=14;startFill=1;endArrow=none;exitX=1;exitY=0.62;entryX=0;entryY=0.1;rounded=0;" edge="1" parent="1" source="d-FdLsb-4e8FkBZbaTKH-62" target="d-FdLsb-4e8FkBZbaTKH-91">
          <mxGeometry relative="1" as="geometry">
            <Array as="points">
              <mxPoint x="4570" y="3434" />
            </Array>
          </mxGeometry>
        </mxCell>
        <mxCell id="d-FdLsb-4e8FkBZbaTKH-198" value="1" style="edgeLabel;resizable=0;labelBackgroundColor=none;fontSize=12;align=left;verticalAlign=top;" vertex="1" parent="d-FdLsb-4e8FkBZbaTKH-197">
          <mxGeometry x="-1" relative="1" as="geometry" />
        </mxCell>
        <mxCell id="d-FdLsb-4e8FkBZbaTKH-199" value="*" style="edgeLabel;resizable=0;labelBackgroundColor=none;fontSize=12;align=right;verticalAlign=bottom;" vertex="1" parent="d-FdLsb-4e8FkBZbaTKH-197">
          <mxGeometry x="1" relative="1" as="geometry" />
        </mxCell>
        <mxCell id="d-FdLsb-4e8FkBZbaTKH-200" value="assignedOfficers" style="curved=1;startArrow=diamondThin;startSize=14;startFill=1;endArrow=none;exitX=0;exitY=0.18;entryX=0.26;entryY=1;rounded=0;" edge="1" parent="1" source="d-FdLsb-4e8FkBZbaTKH-62" target="d-FdLsb-4e8FkBZbaTKH-40">
          <mxGeometry relative="1" as="geometry">
            <Array as="points">
              <mxPoint x="3299" y="2988" />
            </Array>
          </mxGeometry>
        </mxCell>
        <mxCell id="d-FdLsb-4e8FkBZbaTKH-201" value="1" style="edgeLabel;resizable=0;labelBackgroundColor=none;fontSize=12;align=right;verticalAlign=bottom;" vertex="1" parent="d-FdLsb-4e8FkBZbaTKH-200">
          <mxGeometry x="-1" relative="1" as="geometry" />
        </mxCell>
        <mxCell id="d-FdLsb-4e8FkBZbaTKH-202" value="*" style="edgeLabel;resizable=0;labelBackgroundColor=none;fontSize=12;align=left;verticalAlign=top;" vertex="1" parent="d-FdLsb-4e8FkBZbaTKH-200">
          <mxGeometry x="1" relative="1" as="geometry" />
        </mxCell>
        <mxCell id="d-FdLsb-4e8FkBZbaTKH-203" value="" style="curved=1;startArrow=diamondThin;startSize=14;startFill=1;endArrow=none;exitX=1;exitY=0.6;entryX=0;entryY=0.06;rounded=0;" edge="1" parent="1" source="d-FdLsb-4e8FkBZbaTKH-76" target="d-FdLsb-4e8FkBZbaTKH-85">
          <mxGeometry relative="1" as="geometry">
            <Array as="points">
              <mxPoint x="1422" y="3748" />
            </Array>
          </mxGeometry>
        </mxCell>
        <mxCell id="d-FdLsb-4e8FkBZbaTKH-204" value="1" style="edgeLabel;resizable=0;labelBackgroundColor=none;fontSize=12;align=left;verticalAlign=top;" vertex="1" parent="d-FdLsb-4e8FkBZbaTKH-203">
          <mxGeometry x="-1" relative="1" as="geometry" />
        </mxCell>
        <mxCell id="d-FdLsb-4e8FkBZbaTKH-205" value="0..1" style="edgeLabel;resizable=0;labelBackgroundColor=none;fontSize=12;align=right;verticalAlign=bottom;" vertex="1" parent="d-FdLsb-4e8FkBZbaTKH-203">
          <mxGeometry x="1" relative="1" as="geometry" />
        </mxCell>
        <mxCell id="d-FdLsb-4e8FkBZbaTKH-206" value="" style="curved=1;dashed=1;startArrow=none;endArrow=open;endSize=12;exitX=1;exitY=0.54;entryX=0;entryY=0.29;rounded=0;" edge="1" parent="1" source="d-FdLsb-4e8FkBZbaTKH-76" target="d-FdLsb-4e8FkBZbaTKH-102">
          <mxGeometry relative="1" as="geometry">
            <Array as="points">
              <mxPoint x="3043" y="3748" />
            </Array>
          </mxGeometry>
        </mxCell>
        <mxCell id="d-FdLsb-4e8FkBZbaTKH-207" value="" style="curved=1;startArrow=none;endArrow=open;endSize=12;exitX=0;exitY=0.44;entryX=0.48;entryY=1;rounded=0;" edge="1" parent="1" source="d-FdLsb-4e8FkBZbaTKH-85" target="d-FdLsb-4e8FkBZbaTKH-76">
          <mxGeometry relative="1" as="geometry">
            <Array as="points">
              <mxPoint x="209" y="3748" />
            </Array>
          </mxGeometry>
        </mxCell>
        <mxCell id="d-FdLsb-4e8FkBZbaTKH-208" value="" style="curved=1;dashed=1;startArrow=none;endArrow=open;endSize=12;exitX=0.5;exitY=1;entryX=0;entryY=0.45;rounded=0;" edge="1" parent="1" source="d-FdLsb-4e8FkBZbaTKH-85" target="d-FdLsb-4e8FkBZbaTKH-130">
          <mxGeometry relative="1" as="geometry">
            <Array as="points">
              <mxPoint x="1619" y="4020" />
            </Array>
          </mxGeometry>
        </mxCell>
        <mxCell id="d-FdLsb-4e8FkBZbaTKH-209" value="" style="curved=1;dashed=1;startArrow=none;endArrow=open;endSize=12;exitX=0.5;exitY=1;entryX=0;entryY=0.05;rounded=0;" edge="1" parent="1" source="d-FdLsb-4e8FkBZbaTKH-91" target="d-FdLsb-4e8FkBZbaTKH-124">
          <mxGeometry relative="1" as="geometry">
            <Array as="points">
              <mxPoint x="4834" y="3748" />
            </Array>
          </mxGeometry>
        </mxCell>
      </root>
    </mxGraphModel>
  </diagram>
</mxfile>
